<svg xmlns="http://www.w3.org/2000/svg" xmlns:xlink="http://www.w3.org/1999/xlink" viewBox="0 0 502.34 558.34"><defs><style>.cls-1{fill:#fff;}.cls-2{fill:none;}.cls-3,.cls-4,.cls-8,.cls-82{isolation:isolate;}.cls-4{opacity:0.1;}.cls-5{fill:#191c42;}.cls-6{fill:#f2f2fc;}.cls-7{fill:url(#linear-gradient);}.cls-17,.cls-8,.cls-82,.cls-83{opacity:0.1;}.cls-82,.cls-83,.cls-9{fill:#23234c;}.cls-10{fill:url(#linear-gradient-2);}.cls-11{fill:#3661d9;}.cls-12{mask:url(#mask);}.cls-13{fill:#3c66c2;}.cls-14{fill:#1e5da0;}.cls-15{fill:#9ae7f4;}.cls-16{fill:#c3d8f4;}.cls-18{clip-path:url(#clip-path);}.cls-19{clip-path:url(#clip-path-2);}.cls-20{clip-path:url(#clip-path-3);}.cls-21{opacity:0.15;}.cls-22{fill:#ccc;}.cls-23{clip-path:url(#clip-path-4);}.cls-24{clip-path:url(#clip-path-5);}.cls-25{clip-path:url(#clip-path-6);}.cls-26{clip-path:url(#clip-path-7);}.cls-27{fill:#2a2a2a;}.cls-28{fill:#ff5708;}.cls-29{fill:#8385a5;}.cls-30{fill:#9194b5;}.cls-31{fill:#e1bc46;}.cls-32{fill:url(#linear-gradient-3);}.cls-33{fill:#231f20;opacity:0.2;mix-blend-mode:multiply;}.cls-34{fill:url(#linear-gradient-4);}.cls-35{fill:#4a5c72;}.cls-36{fill:#688099;}.cls-37{fill:#9192f9;}.cls-38{fill:#364451;}.cls-39{fill:#040505;}.cls-40{fill:#393c47;}.cls-41{fill:#8d96b2;}.cls-42{fill:#6d7793;}.cls-43{fill:#aeb3c1;}.cls-44{clip-path:url(#clip-path-8);}.cls-45{fill:#31359b;}.cls-46{clip-path:url(#clip-path-9);}.cls-47{fill:#4f4cd8;}.cls-48{fill:#adaed8;}.cls-49{fill:#626484;}.cls-50{fill:#7e7fa3;}.cls-51{fill:#999abf;}.cls-52{fill:url(#linear-gradient-5);}.cls-53{fill:url(#linear-gradient-6);}.cls-54{fill:#494c59;}.cls-55{fill:#bcbde8;}.cls-56{fill:#4b4d63;}.cls-57{fill:#7a7ca0;}.cls-58{fill:url(#linear-gradient-7);}.cls-59{fill:#dcdef9;}.cls-60{clip-path:url(#clip-path-10);}.cls-61{clip-path:url(#clip-path-11);}.cls-62{fill:#828ba4;}.cls-63{fill:#e1ffd4;}.cls-64{fill:url(#linear-gradient-8);}.cls-65{fill:url(#linear-gradient-9);}.cls-66{fill:url(#linear-gradient-10);}.cls-67{fill:url(#linear-gradient-11);}.cls-68{clip-path:url(#clip-path-12);}.cls-69{fill:#858da8;}.cls-70{clip-path:url(#clip-path-13);}.cls-71{fill:#9ba2ba;}.cls-72{fill:#6f768c;}.cls-73{clip-path:url(#clip-path-14);}.cls-74{clip-path:url(#clip-path-15);}.cls-75{fill:url(#linear-gradient-12);}.cls-76{clip-path:url(#clip-path-16);}.cls-77{clip-path:url(#clip-path-17);}.cls-78{fill:#1d591b;}.cls-79{clip-path:url(#clip-path-18);}.cls-80{clip-path:url(#clip-path-19);}.cls-81{fill:url(#linear-gradient-13);}.cls-84{fill:url(#linear-gradient-14);}.cls-85{fill:url(#linear-gradient-15);}.cls-86{fill:url(#linear-gradient-16);}.cls-87{fill:url(#linear-gradient-17);}.cls-88{fill:url(#linear-gradient-18);}.cls-89{fill:url(#linear-gradient-19);}.cls-90{fill:url(#linear-gradient-20);}.cls-91{fill:url(#linear-gradient-21);}.cls-92{fill:url(#linear-gradient-22);}.cls-93{fill:url(#linear-gradient-23);}.cls-94{fill:#6040ff;}.cls-95{fill:url(#linear-gradient-24);}.cls-96{fill:url(#linear-gradient-25);}.cls-97{clip-path:url(#clip-path-20);}.cls-98{fill:#ffe36e;}.cls-99{clip-path:url(#clip-path-21);}.cls-100{fill:#21cdef;}.cls-101{clip-path:url(#clip-path-22);}.cls-102{clip-path:url(#clip-path-23);}.cls-103{fill:#00406b;}.cls-104{fill:#c6c9c3;}.cls-105{fill:#edeffe;}.cls-106{fill:#175a92;}.cls-107{fill:#fcc09e;}.cls-108{fill:#363a2c;}.cls-109{fill:#3f4435;}.cls-110{fill:#dda58e;}.cls-111{fill:#34bec1;}.cls-112{fill:#351a02;}.cls-113{fill:#2deaea;}.cls-114{fill:#332924;}</style><linearGradient id="linear-gradient" x1="19.2" y1="453.35" x2="631.18" y2="453.35" gradientUnits="userSpaceOnUse"><stop offset="0" stop-color="#3929ce"/><stop offset="1" stop-color="#ffa8f8"/></linearGradient><linearGradient id="linear-gradient-2" x1="145.17" y1="323.42" x2="145.17" y2="-64.97" gradientUnits="userSpaceOnUse"><stop offset="0" stop-color="#0f67ab"/><stop offset="1" stop-color="#72e4f8"/></linearGradient><mask id="mask" x="78.53" y="-14.68" width="153.53" height="430.41" maskUnits="userSpaceOnUse"><g id="d"><polygon class="cls-1" points="232.05 -14.69 78.53 52.65 78.53 415.73 232.05 324.85 232.05 -14.69"/></g></mask><clipPath id="clip-path"><polygon class="cls-2" points="103.35 240.8 103.11 152.77 200.64 96.45 200.89 184.49 103.35 240.8"/></clipPath><clipPath id="clip-path-2"><polygon class="cls-2" points="112.33 244.08 112.08 156.04 212.07 98.31 212.32 186.35 112.33 244.08"/></clipPath><clipPath id="clip-path-3"><polygon class="cls-2" points="102.95 321.98 102.87 296.37 202.19 239.03 202.27 264.64 102.95 321.98"/></clipPath><clipPath id="clip-path-4"><polygon class="cls-2" points="102.95 356.14 102.87 330.53 202.19 273.19 202.27 298.8 102.95 356.14"/></clipPath><clipPath id="clip-path-5"><polygon class="cls-2" points="103.48 287.61 103.41 262 149.52 235.38 149.6 260.99 103.48 287.61"/></clipPath><clipPath id="clip-path-6"><polygon class="cls-2" points="156.28 257.24 156.21 231.63 202.32 205 202.39 230.62 156.28 257.24"/></clipPath><clipPath id="clip-path-7"><polygon class="cls-2" points="107.87 128.35 107.83 113.06 192.88 63.96 192.92 79.25 107.87 128.35"/></clipPath><linearGradient id="linear-gradient-3" x1="1920.18" y1="161.13" x2="1928.9" y2="161.13" gradientTransform="matrix(-1, 0, 0, 1, 2126.44, 0)" gradientUnits="userSpaceOnUse"><stop offset="0" stop-color="#3929ce"/><stop offset="1" stop-color="#e77df8"/></linearGradient><linearGradient id="linear-gradient-4" x1="1967.69" y1="159.71" x2="1981.08" y2="159.71" xlink:href="#linear-gradient-3"/><clipPath id="clip-path-8"><path id="_Clipping_Path_" data-name="&lt;Clipping Path&gt;" class="cls-2" d="M188.28,179.89l-2.39-1.16a2.66,2.66,0,0,0-2.64.48l2.38,1.15A2.67,2.67,0,0,1,188.28,179.89Z"/></clipPath><clipPath id="clip-path-9"><path id="_Clipping_Path_2" data-name="&lt;Clipping Path&gt;" class="cls-2" d="M181.33,188.32l2.39,1.15a2.66,2.66,0,0,1-1.29-2.32,8.27,8.27,0,0,1,3.2-6.79l-2.38-1.15A8.27,8.27,0,0,0,180,186,2.66,2.66,0,0,0,181.33,188.32Z"/></clipPath><linearGradient id="linear-gradient-5" x1="1931.81" y1="160.61" x2="1993.24" y2="198.26" xlink:href="#linear-gradient-3"/><linearGradient id="linear-gradient-6" x1="1931.33" y1="161.4" x2="1992.76" y2="199.05" xlink:href="#linear-gradient-3"/><linearGradient id="linear-gradient-7" x1="1940.59" y1="180.67" x2="1986.97" y2="180.67" xlink:href="#linear-gradient-3"/><clipPath id="clip-path-10"><path id="_Clipping_Path_3" data-name="&lt;Clipping Path&gt;" class="cls-2" d="M147,164.65l-1,.16a2.22,2.22,0,0,1,1.1.11l1-.16A2.34,2.34,0,0,0,147,164.65Z"/></clipPath><clipPath id="clip-path-11"><path id="_Clipping_Path_4" data-name="&lt;Clipping Path&gt;" class="cls-2" d="M147.07,171.63l1-.16a2.79,2.79,0,0,0,2.16-2.47,3.81,3.81,0,0,0-2.13-4.24l-1,.16a3.82,3.82,0,0,1,2.13,4.24A2.8,2.8,0,0,1,147.07,171.63Z"/></clipPath><linearGradient id="linear-gradient-8" x1="1962.84" y1="164.56" x2="1971.67" y2="164.56" xlink:href="#linear-gradient-3"/><linearGradient id="linear-gradient-9" x1="1964.86" y1="164.96" x2="1967.91" y2="164.96" gradientTransform="matrix(-1, 0, 0, 1, 2126.44, 0)" gradientUnits="userSpaceOnUse"><stop offset="0" stop-color="#f2a23e"/><stop offset="0.58" stop-color="#ffbd58"/><stop offset="1" stop-color="#ffcd64"/></linearGradient><linearGradient id="linear-gradient-10" x1="1977.39" y1="156.82" x2="1984.22" y2="156.82" xlink:href="#linear-gradient-3"/><linearGradient id="linear-gradient-11" x1="1979.41" y1="157.22" x2="1982.46" y2="157.22" xlink:href="#linear-gradient-9"/><clipPath id="clip-path-12"><path id="_Clipping_Path_5" data-name="&lt;Clipping Path&gt;" class="cls-2" d="M166.56,160.06l-4-1.89a.35.35,0,0,0-.39.07l4,1.89A.41.41,0,0,1,166.56,160.06Z"/></clipPath><clipPath id="clip-path-13"><path id="_Clipping_Path_6" data-name="&lt;Clipping Path&gt;" class="cls-2" d="M161.86,159.63l4,1.89a.41.41,0,0,1-.2-.36,1.26,1.26,0,0,1,.49-1l-4-1.89a1.25,1.25,0,0,0-.49,1A.43.43,0,0,0,161.86,159.63Z"/></clipPath><clipPath id="clip-path-14"><path id="_Clipping_Path_7" data-name="&lt;Clipping Path&gt;" class="cls-2" d="M162.65,157.88l-1.27-.59a.57.57,0,0,0-.58.11l1.27.59A.57.57,0,0,1,162.65,157.88Z"/></clipPath><clipPath id="clip-path-15"><path id="_Clipping_Path_8" data-name="&lt;Clipping Path&gt;" class="cls-2" d="M160.38,159.39l1.27.59a.59.59,0,0,1-.29-.51,1.83,1.83,0,0,1,.71-1.48l-1.27-.59a1.79,1.79,0,0,0-.71,1.49A.57.57,0,0,0,160.38,159.39Z"/></clipPath><linearGradient id="linear-gradient-12" x1="1962.24" y1="154.63" x2="1970.35" y2="154.63" xlink:href="#linear-gradient-3"/><clipPath id="clip-path-16"><path id="_Clipping_Path_9" data-name="&lt;Clipping Path&gt;" class="cls-2" d="M150.82,152.45l-3.95-2a.41.41,0,0,0-.4.06l3.94,2A.43.43,0,0,1,150.82,152.45Z"/></clipPath><clipPath id="clip-path-17"><path id="_Clipping_Path_10" data-name="&lt;Clipping Path&gt;" class="cls-2" d="M146.14,151.87l3.94,2a.39.39,0,0,1-.18-.35,1.28,1.28,0,0,1,.51-1l-3.94-2a1.25,1.25,0,0,0-.52,1A.38.38,0,0,0,146.14,151.87Z"/></clipPath><clipPath id="clip-path-18"><path id="_Clipping_Path_11" data-name="&lt;Clipping Path&gt;" class="cls-2" d="M151.55,152.59l-1.26-.62a.6.6,0,0,0-.59.09l1.26.62A.6.6,0,0,1,151.55,152.59Z"/></clipPath><clipPath id="clip-path-19"><path id="_Clipping_Path_12" data-name="&lt;Clipping Path&gt;" class="cls-2" d="M149.24,154.05l1.26.62a.61.61,0,0,1-.28-.52,1.82,1.82,0,0,1,.74-1.47l-1.26-.62a1.86,1.86,0,0,0-.73,1.48A.59.59,0,0,0,149.24,154.05Z"/></clipPath><linearGradient id="linear-gradient-13" x1="1978.89" y1="146.38" x2="1986.69" y2="146.38" xlink:href="#linear-gradient-3"/><linearGradient id="linear-gradient-14" x1="438.04" y1="357" x2="404.56" y2="357" gradientUnits="userSpaceOnUse"><stop offset="0" stop-color="#2a287a"/><stop offset="1" stop-color="#50566b"/></linearGradient><linearGradient id="linear-gradient-15" x1="431.87" y1="343.15" x2="418.9" y2="324.88" gradientUnits="userSpaceOnUse"><stop offset="0" stop-color="#80d496"/><stop offset="1" stop-color="#12632d"/></linearGradient><linearGradient id="linear-gradient-16" x1="394.84" y1="354.14" x2="408.23" y2="325.12" xlink:href="#linear-gradient-15"/><linearGradient id="linear-gradient-17" x1="453.2" y1="331.75" x2="426.96" y2="317.59" gradientUnits="userSpaceOnUse"><stop offset="0" stop-color="#80d496"/><stop offset="0.92" stop-color="#12632d"/></linearGradient><linearGradient id="linear-gradient-18" x1="379.26" y1="334.52" x2="394.67" y2="318.28" xlink:href="#linear-gradient-15"/><linearGradient id="linear-gradient-19" x1="-3393.1" y1="2350.99" x2="-3385.1" y2="2350.99" gradientTransform="matrix(-0.5, 0.87, 0.91, 0.52, -3380.05, 2027.84)" xlink:href="#linear-gradient-15"/><linearGradient id="linear-gradient-20" x1="439.88" y1="320.01" x2="421.01" y2="313.42" xlink:href="#linear-gradient-15"/><linearGradient id="linear-gradient-21" x1="396.19" y1="338.02" x2="416.79" y2="296.09" xlink:href="#linear-gradient-15"/><linearGradient id="linear-gradient-22" x1="-969.71" y1="-4137.61" x2="-945.18" y2="-4137.61" gradientTransform="translate(-3487.27 1997.01) rotate(79.34)" xlink:href="#linear-gradient-15"/><linearGradient id="linear-gradient-23" x1="-3404.09" y1="2346.09" x2="-3386.2" y2="2346.09" gradientTransform="matrix(-0.5, 0.87, 0.91, 0.52, -3380.05, 2027.84)" xlink:href="#linear-gradient-15"/><linearGradient id="linear-gradient-24" x1="421.91" y1="236.71" x2="421.91" y2="138.65" gradientTransform="matrix(1, 0, 0, 1, 0, 0)" xlink:href="#linear-gradient-3"/><linearGradient id="linear-gradient-25" x1="421.91" y1="309.23" x2="421.91" y2="206.13" gradientTransform="matrix(1, 0, 0, 1, 0, 0)" xlink:href="#linear-gradient-3"/><clipPath id="clip-path-20"><polygon class="cls-2" points="420.56 144.22 420.53 132.97 468.41 105.32 468.44 116.58 420.56 144.22"/></clipPath><clipPath id="clip-path-21"><polygon class="cls-2" points="379.11 177.64 379.02 144.66 408.96 127.38 409.05 160.36 379.11 177.64"/></clipPath><clipPath id="clip-path-22"><polygon class="cls-2" points="421.9 215.68 421.87 204.43 469.75 176.78 469.79 188.03 421.9 215.68"/></clipPath><clipPath id="clip-path-23"><polygon class="cls-2" points="384.74 249.66 384.65 216.9 409.82 202.37 409.91 235.13 384.74 249.66"/></clipPath></defs><title>about-mission1</title><g class="cls-3"><g id="Layer_2" data-name="Layer 2"><g id="Layer_1-2" data-name="Layer 1"><g class="cls-4"><path class="cls-5" d="M489.84,395.51c16.59,9.58,16.68,25.11.2,34.69l-208.13,121c-16.49,9.58-43.3,9.58-59.89,0L12.52,430.2c-16.59-9.58-16.68-25.11-.19-34.69L220.46,274.56c16.48-9.58,43.3-9.58,59.88,0Z"/></g><g class="cls-3"><path class="cls-6" d="M490,393.92l-9.47,5.5-1.49.86-.47.28L472,404.41l-17.45,10.15-15.77,9.17-1.5.87-5.7,3.31-98,56.94-7.7,4.47L310.93,498l-8.36,4.86-9.71,5.64-9.66,5.61h0l-1.28.75a51.7,51.7,0,0,1-14.83,5.58,68.1,68.1,0,0,1-10.77,1.47c-12.22.73-24.9-1.63-34.29-7l-5.46-3.15L73.05,428.86,12.52,393.91c-16.59-9.57-16.68-25.1-.19-34.68l61.25-35.6L142,283.85l78.42-45.58c16.48-9.58,43.3-9.57,59.88,0l209.5,121C506.43,368.81,506.52,384.34,490,393.92Z"/><path class="cls-7" d="M502.34,376.77l0,8.08c0,.12,0,.24,0,.37s0,.25,0,.37,0,.43-.05.64,0,.37-.07.56-.06.42-.1.63l0,.23c0,.11-.06.22-.08.33s-.1.41-.16.62-.1.37-.16.56-.13.41-.2.61l-.09.26c0,.1-.08.19-.12.29s-.17.43-.27.64-.16.36-.25.54-.21.42-.33.63-.1.21-.16.31a1.32,1.32,0,0,1-.12.2c-.15.26-.31.51-.47.75s-.19.31-.29.46-.39.55-.6.82l-.22.3,0,0c-.34.44-.71.86-1.09,1.28l-.32.33c-.3.32-.62.64-.95.95l-.22.21-.25.22c-.2.18-.4.36-.61.53l-.58.49-.66.52-.63.47-.72.5c-.22.16-.45.31-.68.46l-.76.49-.47.29-.51.31L281.88,523c-.63.37-1.28.72-1.95,1.06l-.57.29-1.57.74-.54.24c-.69.3-1.39.59-2.11.86l-.38.14c-.61.22-1.22.44-1.84.64l-.32.11-.45.14-1,.31-.87.25-1.06.29-.89.22-1.08.25-.9.2-1.11.21-.62.13-.23,0c-.79.14-1.59.27-2.39.39l-.34,0c-.7.09-1.41.18-2.11.25l-.33,0-.48,0-1.36.11-.86.06-1.42.07-.58,0h-.23l-1.23,0h-3l-1.21,0-.85,0-1.3-.09-.71,0h0l-.37,0q-.62,0-1.23-.12l-.44,0c-.67-.08-1.35-.16-2-.26h0l-.27,0-1.76-.28-.71-.13-1.31-.25-.14,0-.54-.12-1.42-.32-.79-.2-1.28-.34-.39-.1-.33-.11c-.68-.19-1.34-.4-2-.62l-.36-.11c-.76-.26-1.5-.53-2.24-.82l-.21-.08-.25-.11c-1-.38-1.9-.79-2.81-1.22l-.27-.13c-.95-.47-1.88-1-2.78-1.47L101.64,453.53,12.5,402.07C4.15,397.25,0,390.92,0,384.6l0-8.1a15.13,15.13,0,0,0,.77,4.67c.13.39.28.77.44,1.16a19,19,0,0,0,1.17,2.29c.1.17.21.34.33.52A19.28,19.28,0,0,0,4,386.87q.2.25.42.51l.31.36.55.6a28.86,28.86,0,0,0,2.54,2.34l.71.57.74.55.77.54.81.54c.54.35,1.1.7,1.69,1l89.12,51.45L222,514.87q.67.39,1.38.75c.28.15.56.3.85.44l.56.28.27.13c.51.24,1,.48,1.55.7l1.11.46.14.06.47.19c.73.28,1.48.56,2.24.82l.34.11,1,.32,1,.3.72.21.12,0,1.13.3h0l.78.2.12,0,1.21.27.1,0,.67.15,1.31.24.72.14c.58.1,1.16.19,1.75.27l.29.05h0c.66.1,1.34.18,2,.26l.43,0c.4.05.81.09,1.21.11l.35,0h0c.25,0,.5,0,.75.06l1.23.08H248l.85,0,1.2,0h3l1,0h.25l.81,0h.18c.39,0,.79,0,1.18-.06h.06l.86-.06h.07l1-.08.25,0,.81-.08c.36,0,.71-.07,1.06-.12l1-.13.28,0H262c.8-.11,1.6-.24,2.39-.38l.86-.16,1.11-.22.89-.19,1.08-.25.89-.23,1.06-.28.88-.25.94-.28.09,0,.76-.25.93-.32c.31-.11.61-.21.91-.33l.38-.13.12,0,1.54-.62.45-.19.54-.25.79-.36.78-.38.58-.28c.66-.34,1.31-.69,2-1.06L490,393.92l.5-.3c.43-.25.85-.52,1.25-.79s.94-.63,1.39-1l.63-.47a8.38,8.38,0,0,0,.66-.52l.59-.49.61-.53.49-.46q.48-.45.93-.93l.31-.32c.37-.4.71-.8,1.05-1.21l.05-.07c.31-.39.6-.78.86-1.17.12-.17.22-.34.33-.51l.4-.65c.11-.18.22-.37.32-.56s.25-.5.37-.75.14-.28.2-.42.11-.25.16-.38.23-.54.32-.81.14-.41.2-.61.12-.38.17-.56l.15-.62c0-.17.07-.34.11-.51,0,0,0,0,0-.05a.06.06,0,0,1,0,0,11.31,11.31,0,0,0,.15-1.15c0-.11,0-.21,0-.32a5.32,5.32,0,0,0,0-.69C502.33,377,502.34,376.87,502.34,376.77Z"/></g><g class="cls-8"><path class="cls-9" d="M210.91,320.34a31.8,31.8,0,0,1-10.62,8.5,21.09,21.09,0,0,1-6.65,5.74c-2.14,1.15-4.16,2.46-6.18,3.81-.78.67-1.58,1.31-2.35,2-3.43,2.95-6.73,6-10.22,8.91-4.91,4.05-10,8.15-15.62,11.2a130.45,130.45,0,0,1-18.63,7.76C130.18,372,119.58,375.48,109,379l-2.21,1c-3.54,1.62-7.13,3.18-10.75,4.61a43.23,43.23,0,0,1-18.5,3.25c-1.48-.11-2.92-3.32-4.32-3.63l-.21,44.65,143.51,82.86.95-188.07A15,15,0,0,0,215,315C213.72,316.83,212.32,318.6,210.91,320.34Z"/><path class="cls-9" d="M79.66,281.18c-.23-1.41-.43-2.86-.65-4.38A11.12,11.12,0,0,0,79.66,281.18Z"/></g><path class="cls-10" d="M89.47,60.49,191.81,1.63c3.66-2.1,7-2.1,9.19-.41h0l13.1,8.71H214c2,1.36,3.12,4,3.12,7.59v297.4c0,7.71-5.37,17.21-12,21.11L98.71,398.32c-2.59,1.51-5,2-6.94,1.49l0,.19-.52-.35A5.73,5.73,0,0,1,88.76,398l-10.82-6.89,0-.31c-2.84-.91-4.77-3.83-4.77-8.31v-295c0-8.78,2.42-20.1,16.27-27Z"/><path class="cls-11" d="M86.49,391.38c0,7.72,5.52,10.84,12.18,6.94L205.07,336c6.66-3.9,12.07-13.4,12.07-21.11V17.52c0-7.71-5.4-10.88-12.08-7L98.68,71.67c-12.15,6.76-12.19,14.5-12.19,22.21v297.5Z"/><g class="cls-12"><path class="cls-13" d="M86.49,391.38c0,7.71,5.49,10.84,12.14,6.94L205.11,336c6.66-3.9,12-13.4,12-21.11V17.52c0-7.71-5.44-10.88-12.12-7L98.72,71.67C86.3,78.43,86.49,83.56,86.49,93.88v297.5Zm8.86,4.71a7.68,7.68,0,0,1-3.63,1.33c-2,0-2.28-4.22-2.28-6V93.92c0-.87.11-1.73.12-2.57.08-7,.2-11.6,9.75-17.48l105-61.1a15.3,15.3,0,0,1,6.28-1.8c1.1,0,4.36,0,4.36,6.55v297.4c0,7-6.26,15.55-11.95,18.88Z"/></g><path class="cls-14" d="M82.94,155.21a4.34,4.34,0,0,0-2-3.39l-2-1.13c-1.08-.62-2-.12-2,1.13v24.67a4.34,4.34,0,0,0,2,3.39L81,181c1.08.62,2,.11,2-1.13Z"/><ellipse class="cls-15" cx="157.34" cy="348.27" rx="11.86" ry="7.56" transform="translate(-222.94 310.4) rotate(-60)"/><ellipse class="cls-15" cx="166.88" cy="45.18" rx="2.31" ry="1.47" transform="translate(44.31 167.11) rotate(-60)"/><ellipse class="cls-15" cx="152.33" cy="46.53" rx="1.17" ry="0.75" transform="translate(35.87 155.19) rotate(-60)"/><path class="cls-15" d="M141.85,59.36a3.85,3.85,0,0,1,1.91-2.68L160,47.52c.86-.49,1.77-.09,1.77.9v.2a3.47,3.47,0,0,1-1.6,2.69l-16.41,9.16a1.2,1.2,0,0,1-1.92-.91Z"/><path class="cls-16" d="M94,363.66,94,98.94a2.8,2.8,0,0,1,1.3-2.13L210.22,31c.68-.39,1.75-.07,1.75.72v264L94,363.66Z"/><path class="cls-16" d="M212,78.34V29c0-.79-.73-1.11-1.42-.72l-115,66.09c-.68.4-1.66,1.36-1.66,2.15V146.6Zm0,221.22V273.8L93.87,341.63v25.55a.9.9,0,0,0,1.45.72l115.23-66.19A2.93,2.93,0,0,0,212,299.56Z"/><g class="cls-17"><g class="cls-3"><g class="cls-18"><path d="M193.87,100.36l-84,48.49a14.87,14.87,0,0,0-6.76,11.7l.2,72.46c0,4.31,3.06,6,6.81,3.88l84-48.49a14.88,14.88,0,0,0,6.75-11.7l-.2-72.46c0-4.3-3.06-6-6.8-3.88"/></g></g></g><g class="cls-3"><g class="cls-19"><path class="cls-1" d="M205.22,102.27,119,152.08a15.08,15.08,0,0,0-6.84,11.85l.2,72.27c0,4.35,3.1,6.1,6.89,3.91l86.27-49.8a15.09,15.09,0,0,0,6.83-11.84l-.2-72.27c0-4.36-3.1-6.12-6.88-3.93"/></g></g><g class="cls-3"><g class="cls-20"><path class="cls-21" d="M102.89,301.67l0,16.17c0,2.29,1.62,3.21,3.61,2.06l92.11-53.18a7.9,7.9,0,0,0,3.59-6.22v-1.16a7.92,7.92,0,0,1-3.59,6.23l-92.12,53.18c-2,1.15-3.6.22-3.61-2.07l0-15"/><path class="cls-1" d="M113.66,305.73c-1.6.93-2.9.18-2.9-1.66a6.37,6.37,0,0,1,2.88-5l38.46-22.2c1.6-.92,2.9-.18,2.91,1.66a6.39,6.39,0,0,1-2.89,5l-38.46,22.2m84.93-64.62-92.11,53.18a7.9,7.9,0,0,0-3.59,6.22v1.16l0,15c0,2.29,1.63,3.22,3.61,2.07l92.12-53.18a7.92,7.92,0,0,0,3.59-6.23l0-16.17c0-2.29-1.63-3.21-3.62-2.06"/><path class="cls-22" d="M152.1,276.86l-38.46,22.2a6.37,6.37,0,0,0-2.88,5c0,1.84,1.3,2.59,2.9,1.66l38.46-22.2a6.39,6.39,0,0,0,2.89-5c0-1.84-1.31-2.58-2.91-1.66"/></g></g><g class="cls-3"><g class="cls-23"><path class="cls-21" d="M102.89,335.83l0,16.17c0,2.29,1.62,3.21,3.61,2.06l92.11-53.18a7.9,7.9,0,0,0,3.59-6.22V293.5a7.92,7.92,0,0,1-3.59,6.23l-92.12,53.18c-2,1.14-3.6.23-3.61-2.06l0-15"/><path class="cls-1" d="M113.66,339.89c-1.6.92-2.9.18-2.9-1.66a6.37,6.37,0,0,1,2.88-5L152.1,311c1.6-.93,2.9-.18,2.91,1.66a6.4,6.4,0,0,1-2.89,5l-38.46,22.2m84.93-64.62-92.11,53.18a7.92,7.92,0,0,0-3.59,6.23v1.15l0,15c0,2.29,1.63,3.2,3.61,2.06l92.12-53.18a7.92,7.92,0,0,0,3.59-6.23l0-16.16c0-2.29-1.63-3.22-3.62-2.07"/><path class="cls-22" d="M152.1,311l-38.46,22.2a6.37,6.37,0,0,0-2.88,5c0,1.84,1.3,2.58,2.9,1.66l38.46-22.2a6.4,6.4,0,0,0,2.89-5c0-1.84-1.31-2.59-2.91-1.66"/></g></g><g class="cls-3"><g class="cls-24"><path class="cls-21" d="M103.42,266l0,18.81c0,1.56,1.11,2.19,2.47,1.4l41.2-23.78a5.42,5.42,0,0,0,2.45-4.25V257a5.42,5.42,0,0,1-2.45,4.24L105.93,285c-1.35.78-2.46.15-2.46-1.4l0-17.66"/><path class="cls-1" d="M114.64,271.1c-1.28.74-2.32.15-2.33-1.33v-1.33a5.09,5.09,0,0,1,2.31-4l23.74-13.7c1.28-.74,2.32-.15,2.33,1.33v1.33a5.09,5.09,0,0,1-2.31,4l-23.74,13.7m32.43-34.3-41.2,23.78a5.37,5.37,0,0,0-2.45,4.25V266l0,17.66c0,1.55,1.11,2.18,2.46,1.4l41.21-23.79a5.42,5.42,0,0,0,2.45-4.24l-.06-18.81c0-1.56-1.11-2.19-2.46-1.4"/><path class="cls-22" d="M138.36,250.73l-23.74,13.7a5.09,5.09,0,0,0-2.31,4v1.33c0,1.48,1,2.07,2.33,1.33l23.74-13.7a5.09,5.09,0,0,0,2.31-4v-1.33c0-1.48-1.05-2.07-2.33-1.33"/></g></g><g class="cls-3"><g class="cls-25"><path class="cls-21" d="M156.22,235.6l.05,18.81c0,1.56,1.11,2.19,2.46,1.41L199.93,232a5.37,5.37,0,0,0,2.45-4.24v-1.15a5.42,5.42,0,0,1-2.45,4.24l-41.2,23.78c-1.35.78-2.46.16-2.46-1.4l-.05-17.66"/><path class="cls-1" d="M167.44,240.73c-1.28.74-2.33.14-2.33-1.33v-1.33a5.13,5.13,0,0,1,2.32-4l23.73-13.7c1.29-.74,2.33-.15,2.33,1.33V223a5.15,5.15,0,0,1-2.32,4l-23.73,13.7m32.42-34.31-41.2,23.79a5.38,5.38,0,0,0-2.44,4.24v1.15l.05,17.66c0,1.56,1.11,2.18,2.46,1.4l41.2-23.78a5.42,5.42,0,0,0,2.45-4.24l0-18.81c0-1.56-1.11-2.19-2.47-1.41"/><path class="cls-22" d="M191.15,220.36l-23.73,13.7a5.13,5.13,0,0,0-2.32,4v1.33c0,1.47,1,2.07,2.33,1.33L191.17,227a5.15,5.15,0,0,0,2.32-4v-1.32c0-1.48-1-2.07-2.33-1.33"/></g></g><g class="cls-3"><g class="cls-26"><path class="cls-27" d="M110.13,121.11v-2.19l1.9-1.09c.57-.33.94-.08.94.55A2,2,0,0,1,112,120l-1.9,1.1m0-4.5v-2l1.62-.93c.52-.3.87-.07.87.51a1.85,1.85,0,0,1-.87,1.52l-1.61.93m1.6-5.4-3.89,2.24,0,11.42,4.17-2.41a6.47,6.47,0,0,0,3.21-5.2c0-1.16-.5-1.76-1.23-1.87a5.12,5.12,0,0,0,.85-2.73c0-2-1.41-2.45-3.14-1.45"/><path class="cls-27" d="M120.2,115.59c-.92.53-1.63.17-1.63-1a3.44,3.44,0,0,1,1.62-2.86c.92-.53,1.64-.18,1.64,1a3.47,3.47,0,0,1-1.63,2.87m0-6.23a8.19,8.19,0,0,0-3.75,6.48c0,2.42,1.7,3.33,3.78,2.13a8.19,8.19,0,0,0,3.75-6.48c0-2.42-1.69-3.34-3.78-2.13"/><path class="cls-27" d="M128.93,110.55c-.92.53-1.64.18-1.64-1a3.45,3.45,0,0,1,1.63-2.87c.92-.53,1.63-.18,1.64,1a3.49,3.49,0,0,1-1.63,2.87m0-6.23a8.13,8.13,0,0,0-3.75,6.48c0,2.43,1.69,3.34,3.77,2.13a8.13,8.13,0,0,0,3.75-6.48c0-2.42-1.68-3.34-3.77-2.13"/><polyline class="cls-27" points="136.35 96.99 134.22 98.22 134.25 109.63 136.38 108.4 136.37 104.79 138.65 107.09 141.06 105.7 138.4 103.16 140.97 97.58 138.49 99.02 136.37 103.82 136.35 96.99"/><path class="cls-27" d="M144.3,95.66l-2.12,1.23,0,8.16,2.13-1.23,0-8.16m-1.07-3A2.88,2.88,0,0,0,142,94.83c0,.8.6,1.12,1.29.73a2.88,2.88,0,0,0,1.27-2.21c0-.8-.59-1.13-1.28-.73"/><path class="cls-27" d="M150.38,91.93a4.9,4.9,0,0,0-2,2.17v-.77l-2.13,1.22,0,8.16,2.13-1.23V97a2.66,2.66,0,0,1,1.31-2.44c.69-.4,1.24-.25,1.25.76V100l2.13-1.23,0-5c0-2.2-1.23-2.67-2.66-1.84"/><path class="cls-27" d="M158.35,93.36c-1,.58-1.72.23-1.72-.89a3.49,3.49,0,0,1,1.71-2.89c1-.58,1.72-.23,1.73.9a3.48,3.48,0,0,1-1.72,2.88M158,87.54a7.7,7.7,0,0,0-3.48,6.16c0,2.24,1.49,3.28,3.5,2.12a5.2,5.2,0,0,0,2.07-2.26v.75a3,3,0,0,1-1.6,2.67c-.94.55-1.36.33-1.63-.09l-1.8,2.25c.65,1,1.88.89,3.37,0a7.26,7.26,0,0,0,3.73-6l0-7.75-2.07,1.2v.83c-.48-.39-1.15-.4-2.08.14"/><polyline class="cls-27" points="170.27 77.4 168 78.72 168.03 90.13 170.31 88.82 170.27 77.4"/><path class="cls-27" d="M176.42,76.89a5,5,0,0,0-2,2.17v-.77l-2.13,1.22,0,8.16,2.13-1.23V82a2.66,2.66,0,0,1,1.31-2.44c.69-.4,1.24-.24,1.24.77V85l2.13-1.23v-5c0-2.2-1.23-2.67-2.67-1.84"/><path class="cls-27" d="M184.41,69a5.82,5.82,0,0,0-3.06,5.27l-.95.55v2.35l.95-.55,0,5.81,2.13-1.23V75.39l1.31-.76V72.28l-1.32.76a1.92,1.92,0,0,1,1.05-1.76l.26-.14V68.8l-.38.2"/><path class="cls-27" d="M189.14,75.78c-.92.53-1.64.18-1.64-1a3.48,3.48,0,0,1,1.63-2.87c.93-.54,1.64-.18,1.64,1a3.43,3.43,0,0,1-1.63,2.86m0-6.22A8.13,8.13,0,0,0,185.38,76c0,2.43,1.68,3.34,3.77,2.14a8.17,8.17,0,0,0,3.75-6.48c0-2.43-1.69-3.34-3.78-2.13"/></g></g><g id="_Group_" data-name="&lt;Group&gt;"><g id="_Group_2" data-name="&lt;Group&gt;"><path id="_Path_" data-name="&lt;Path&gt;" class="cls-28" d="M193.72,152.67c2.69-1.44,5.49,1.12,5.49,1.12,2.84,3,1.37,5.24,1.37,5.24L197,156.25Z"/><path id="_Path_2" data-name="&lt;Path&gt;" class="cls-29" d="M192.27,153.16l1.32-.56a16.13,16.13,0,0,1,7.12,6.72l-.83,1.19Z"/></g><g id="_Group_3" data-name="&lt;Group&gt;"><path id="_Path_3" data-name="&lt;Path&gt;" class="cls-30" d="M203.26,161l-3.34-2a.44.44,0,0,0-.65.29.88.88,0,0,0,.38.93l2.93,1.85Z"/><g id="_Group_4" data-name="&lt;Group&gt;"><path id="_Path_4" data-name="&lt;Path&gt;" class="cls-31" d="M202.32,162.21c.7,1.31,2.9.5,3.83.08a.8.8,0,0,0,.47-.66,2.72,2.72,0,0,0-1.42-2.72.81.81,0,0,0-.82.05C203.51,159.49,201.61,160.85,202.32,162.21Z"/><path id="_Path_5" data-name="&lt;Path&gt;" class="cls-32" d="M201.56,162.59c.76,1.44,3.17.55,4.18.09a.86.86,0,0,0,.52-.72,3,3,0,0,0-1.55-3,.91.91,0,0,0-.9.06C202.86,159.62,200.78,161.11,201.56,162.59Z"/></g></g><path id="_Path_6" data-name="&lt;Path&gt;" class="cls-33" d="M188.41,176.66l-58.3,29.94s1.17,8.87,6,10c5.77,1.34,7.71.87,25.22-8.84C182.12,196.23,189.05,191,189.05,191s11.56-6.91,8.67-13.83C193.88,168,188.41,176.66,188.41,176.66Z"/><g id="_Group_5" data-name="&lt;Group&gt;"><polygon id="_Path_7" data-name="&lt;Path&gt;" class="cls-34" points="158.75 156.3 156.52 164.34 150.52 162.13 152.59 155.09 158.75 156.3"/><polygon id="_Path_8" data-name="&lt;Path&gt;" class="cls-35" points="155.52 154.76 155.99 154.84 156.99 155.11 157.85 155.42 158.56 155.96 158.66 156.34 158.24 156.65 157.66 156.74 157.04 156.78 156.39 156.74 155.64 156.63 155.06 156.53 154.43 156.37 153.68 156.09 153.08 155.75 152.71 155.32 152.71 155.02 153.11 154.76 153.67 154.68 154.3 154.65 155.52 154.76"/><path id="_Path_9" data-name="&lt;Path&gt;" class="cls-36" d="M155.41,154.84s-.47-.06-.71-.07l.7.62H155l1.57,1.32a3.81,3.81,0,0,0,.47,0Z"/><g id="_Group_6" data-name="&lt;Group&gt;"><path id="_Compound_Path_" data-name="&lt;Compound Path&gt;" class="cls-37" d="M158,155.46c1.14.58,1,1.17-.25,1.31a9.17,9.17,0,0,1-4.38-.8c-1.14-.58-1-1.17.26-1.31A9.11,9.11,0,0,1,158,155.46Zm-.37,1.25c1.2-.14,1.31-.69.24-1.24a8.59,8.59,0,0,0-4.13-.75c-1.2.13-1.3.68-.24,1.23a8.64,8.64,0,0,0,4.13.76Z"/></g><g id="_Group_7" data-name="&lt;Group&gt;"><path id="_Path_10" data-name="&lt;Path&gt;" class="cls-38" d="M153.72,154.72l.2,0a9.77,9.77,0,0,1,3.06.42,5.43,5.43,0,0,1,.87.35c.47.25.72.48.74.69-.06-.19-.3-.41-.73-.62a8.42,8.42,0,0,0-4.12-.75c-.67.07-1,.28-1,.54C152.67,155,153,154.8,153.72,154.72Z"/></g></g><g id="_Group_8" data-name="&lt;Group&gt;"><g id="_Group_9" data-name="&lt;Group&gt;"><g id="_Group_10" data-name="&lt;Group&gt;"><g id="_Group_11" data-name="&lt;Group&gt;"><path id="_Path_11" data-name="&lt;Path&gt;" class="cls-39" d="M179.42,182.44a10,10,0,0,0,1.65,1.66c1.9,1.56,4.56,3.45,7.61,2.54,1.59-.48,8.93-18,8.93-18s-1.12-2.79-5.68-3.19-9.78,3.56-9.78,3.56Z"/></g></g><g id="_Group_12" data-name="&lt;Group&gt;"><g id="_Group_13" data-name="&lt;Group&gt;"><g id="_Group_14" data-name="&lt;Group&gt;"><path id="_Compound_Path_2" data-name="&lt;Compound Path&gt;" class="cls-40" d="M190.82,167.91c4.29-2.48,7.79-.49,7.8,4.44s-3.46,11-7.74,13.42a6.46,6.46,0,0,1-4.31,1c-2.09-.4-3.49-2.34-3.49-5.44C183.06,176.4,186.54,170.38,190.82,167.91Z"/></g></g></g></g><g id="_Group_15" data-name="&lt;Group&gt;"><g id="_Group_16" data-name="&lt;Group&gt;"><g id="_Group_17" data-name="&lt;Group&gt;"><g id="_Group_18" data-name="&lt;Group&gt;"><g id="_Group_19" data-name="&lt;Group&gt;"><g id="_Group_20" data-name="&lt;Group&gt;"><path id="_Compound_Path_3" data-name="&lt;Compound Path&gt;" class="cls-41" d="M189.06,183.3c-1.9,0-3.13-1.53-3.14-3.89a11.15,11.15,0,0,1,5.05-8.75,4.83,4.83,0,0,1,2.4-.72c1.9,0,3.13,1.52,3.14,3.88a11.15,11.15,0,0,1-5,8.75A4.87,4.87,0,0,1,189.06,183.3Z"/></g></g></g></g></g><g id="_Group_21" data-name="&lt;Group&gt;"><g id="_Group_22" data-name="&lt;Group&gt;"><g id="_Group_23" data-name="&lt;Group&gt;"><path id="_Path_12" data-name="&lt;Path&gt;" class="cls-42" d="M187.43,182.39a2.46,2.46,0,0,0,1.63.56,4.45,4.45,0,0,0,2.22-.67,10.8,10.8,0,0,0,4.89-8.46,3.6,3.6,0,0,0-1.34-3.11l-.05,0A13.25,13.25,0,0,1,187.43,182.39Z"/></g></g></g><g id="_Group_24" data-name="&lt;Group&gt;"><g id="_Group_25" data-name="&lt;Group&gt;"><g id="_Group_26" data-name="&lt;Group&gt;"><g id="_Group_27" data-name="&lt;Group&gt;"><path id="_Compound_Path_4" data-name="&lt;Compound Path&gt;" class="cls-43" d="M190,180.9c-1.1,0-1.81-.88-1.81-2.26a6.65,6.65,0,0,1,3-5.25,2.77,2.77,0,0,1,1.41-.43c1.1,0,1.81.89,1.81,2.26a6.72,6.72,0,0,1-3,5.25A2.79,2.79,0,0,1,190,180.9Z"/></g></g></g></g></g></g><g id="_Group_28" data-name="&lt;Group&gt;" class="cls-3"><g id="_Clip_Group_" data-name="&lt;Clip Group&gt;" class="cls-3"><g class="cls-44"><g id="_Group_29" data-name="&lt;Group&gt;"><path id="_Path_13" data-name="&lt;Path&gt;" class="cls-45" d="M188.28,179.89l-2.39-1.16a2.66,2.66,0,0,0-2.64.48l2.38,1.15a2.67,2.67,0,0,1,2.65-.47Z"/></g></g></g><g id="_Clip_Group_2" data-name="&lt;Clip Group&gt;" class="cls-3"><g class="cls-46"><g id="_Group_30" data-name="&lt;Group&gt;" class="cls-3"><path id="_Path_14" data-name="&lt;Path&gt;" class="cls-45" d="M185.63,180.36l-2.38-1.15a6.89,6.89,0,0,0-1.53,1.52l2.39,1.15a6.85,6.85,0,0,1,1.52-1.52Z"/><path id="_Path_15" data-name="&lt;Path&gt;" class="cls-45" d="M184.11,181.88l-2.39-1.15a8.79,8.79,0,0,0-1.26,2.41l2.38,1.14a9.36,9.36,0,0,1,1.27-2.4Z"/><path id="_Path_16" data-name="&lt;Path&gt;" class="cls-45" d="M182.84,184.28l-2.38-1.14A7,7,0,0,0,180,186a2.66,2.66,0,0,0,1.29,2.33l2.39,1.15a2.66,2.66,0,0,1-1.29-2.32,7.14,7.14,0,0,1,.41-2.87Z"/></g></g></g><g id="_Group_31" data-name="&lt;Group&gt;"><path id="_Path_17" data-name="&lt;Path&gt;" class="cls-47" d="M185.63,180.36a8.27,8.27,0,0,0-3.2,6.79c.2,2.38,2,3.2,3.94,1.83a8.25,8.25,0,0,0,3.2-6.78C189.37,179.82,187.6,179,185.63,180.36Z"/></g><g id="_Group_32" data-name="&lt;Group&gt;"><path id="_Path_18" data-name="&lt;Path&gt;" class="cls-48" d="M185.8,181.37a6.51,6.51,0,0,0-2.51,5.3c.16,1.87,1.54,2.51,3.08,1.44a6.45,6.45,0,0,0,2.51-5.3C188.72,181,187.34,180.3,185.8,181.37Z"/></g></g><path id="_Path_19" data-name="&lt;Path&gt;" class="cls-49" d="M158.45,178.85s6.51-5.65,7.2-6.67S186,178,186,178l-.06,1-11.65,12.84L164,199.25l-7.89-1.31L152,184.25Z"/><g id="_Group_33" data-name="&lt;Group&gt;"><g id="_Group_34" data-name="&lt;Group&gt;"><g id="_Group_35" data-name="&lt;Group&gt;"><g id="_Group_36" data-name="&lt;Group&gt;"><path id="_Compound_Path_5" data-name="&lt;Compound Path&gt;" class="cls-39" d="M137.37,194.29c4.29-2.47,7.79-.48,7.8,4.45s-3.46,10.95-7.75,13.42a6.34,6.34,0,0,1-4.29,1c-2.11-.39-3.5-2.33-3.5-5.43C129.61,202.79,133.09,196.77,137.37,194.29Z"/></g></g></g><g id="_Group_37" data-name="&lt;Group&gt;"><g id="_Group_38" data-name="&lt;Group&gt;"><path id="_Path_20" data-name="&lt;Path&gt;" class="cls-39" d="M130.53,210.9s-.28.49.83,1.4c1.9,1.56,4.56,3.45,7.61,2.54,1.59-.48,8.93-18,8.93-18s-1.12-2.79-5.68-3.19-8.39,4.75-8.39,4.75Z"/></g></g><g id="_Group_39" data-name="&lt;Group&gt;"><g id="_Group_40" data-name="&lt;Group&gt;"><g id="_Group_41" data-name="&lt;Group&gt;"><path id="_Compound_Path_6" data-name="&lt;Compound Path&gt;" class="cls-40" d="M141.11,196.11c4.29-2.48,7.79-.48,7.81,4.44s-3.47,10.95-7.75,13.42a6.32,6.32,0,0,1-4.3,1c-2.1-.39-3.5-2.33-3.5-5.43C133.35,204.6,136.83,198.59,141.11,196.11Z"/></g></g></g><g id="_Group_42" data-name="&lt;Group&gt;"><g id="_Group_43" data-name="&lt;Group&gt;"><g id="_Group_44" data-name="&lt;Group&gt;"><g id="_Group_45" data-name="&lt;Group&gt;"><g id="_Group_46" data-name="&lt;Group&gt;"><g id="_Group_47" data-name="&lt;Group&gt;"><path id="_Compound_Path_7" data-name="&lt;Compound Path&gt;" class="cls-41" d="M139.35,211.49c-1.9,0-3.13-1.52-3.14-3.88a11.17,11.17,0,0,1,5-8.75,4.83,4.83,0,0,1,2.4-.72c1.9,0,3.13,1.52,3.14,3.88a11.15,11.15,0,0,1-5.05,8.75A4.85,4.85,0,0,1,139.35,211.49Z"/></g></g></g></g></g><g id="_Group_48" data-name="&lt;Group&gt;"><g id="_Group_49" data-name="&lt;Group&gt;"><g id="_Group_50" data-name="&lt;Group&gt;"><path id="_Path_21" data-name="&lt;Path&gt;" class="cls-42" d="M137.72,210.59a2.46,2.46,0,0,0,1.63.56,4.35,4.35,0,0,0,2.22-.68,10.79,10.79,0,0,0,4.89-8.45,3.66,3.66,0,0,0-1.34-3.11l-.05,0A13.25,13.25,0,0,1,137.72,210.59Z"/></g></g></g><g id="_Group_51" data-name="&lt;Group&gt;"><g id="_Group_52" data-name="&lt;Group&gt;"><g id="_Group_53" data-name="&lt;Group&gt;"><g id="_Group_54" data-name="&lt;Group&gt;"><path id="_Compound_Path_8" data-name="&lt;Compound Path&gt;" class="cls-43" d="M140.26,208.86c-1.09,0-1.81-.89-1.81-2.26a6.67,6.67,0,0,1,3-5.25,2.87,2.87,0,0,1,1.41-.43c1.09,0,1.81.89,1.81,2.26a6.7,6.7,0,0,1-3,5.26A2.88,2.88,0,0,1,140.26,208.86Z"/></g></g></g></g></g><g id="_Group_55" data-name="&lt;Group&gt;"><path id="_Path_22" data-name="&lt;Path&gt;" class="cls-49" d="M144.32,195.21l-2.88,7.62c-.29.78-.93,1.8-.23,2.16.18.09.47.32.6.27.47-.18.66-1.27.93-1.86l3.64-8.24A8,8,0,0,0,144.32,195.21Z"/><path id="_Path_23" data-name="&lt;Path&gt;" class="cls-50" d="M145,195.08l-3.09,8c-.29.78-.94,1.82-.16,2.13s1.77-2.44,2.11-3.2l3.14-6.91A9.93,9.93,0,0,0,145,195.08Z"/></g></g><path id="_Path_24" data-name="&lt;Path&gt;" class="cls-51" d="M200,168s.78-.45,1.92.83c0,0,1.57,1.73.74,2.47s-9.2,7-12,6.82c0,0-2.24,0-2.72-.78A108.3,108.3,0,0,1,200,168Z"/><g id="_Group_56" data-name="&lt;Group&gt;"><path id="_Path_25" data-name="&lt;Path&gt;" class="cls-52" d="M175.82,181.82l0,2.63a.51.51,0,0,1-.5.51h-3.74a.59.59,0,0,1-.58-.51l-.42-2.61s-4.46-1.34-5.37-3l-1,1.55a.25.25,0,0,1-.45-.05l-.92-2.54a.8.8,0,0,1,.2-.83l.68-.64a1.12,1.12,0,0,1,.8-.28.24.24,0,0,0,.25-.22l.25-4.72a17.58,17.58,0,0,1-1.52-3.54c-.22-1.18,23-13.94,23-13.94s4.15-3.87,11,3.28c0,0,3.07,3.22,2.28,4.79L181,178.68Z"/><path id="_Path_26" data-name="&lt;Path&gt;" class="cls-53" d="M164.68,177.69c-.51-1.44.34-6.49.34-6.49,1.75,6.05,12.06,4,12.06,4a33.31,33.31,0,0,0-1.17,6.64S166.69,183.45,164.68,177.69Z"/></g><g id="_Group_57" data-name="&lt;Group&gt;"><g id="_Group_58" data-name="&lt;Group&gt;"><path id="_Path_27" data-name="&lt;Path&gt;" class="cls-48" d="M188.93,157.44a7.35,7.35,0,0,0,5.06-3.52,1.71,1.71,0,0,0,.16-1.31,2.06,2.06,0,0,0-1-1.23l-5.43-3.09a3,3,0,0,0-2.86-.19,3.12,3.12,0,0,0-.52.34,6.57,6.57,0,0,0-1.14,1.26l.89.39-.47-.1.47.1a4.64,4.64,0,0,1,.85-.92,1.87,1.87,0,0,1,.36-.23,2.12,2.12,0,0,1,2,.17l5.43,3.09a1.12,1.12,0,0,1,.54.66.73.73,0,0,1-.07.58,6.26,6.26,0,0,1-3.92,2.93Z"/></g><g id="_Group_59" data-name="&lt;Group&gt;"><path id="_Path_28" data-name="&lt;Path&gt;" class="cls-40" d="M172,158c2.54-1.89,3.11-3.27,4.59-5.14,1-1.26,3.8-4.59,8.44-2.62,0,0,5.12,1.88,4.67,5.11,0,0,.13,4.15-8.65,10.41,0,0-4.23,3.26-11.27,1.89a.2.2,0,0,0-.23.21.37.37,0,0,1-.48.37,5,5,0,0,1-2.42-1.41C166.09,165.88,166.38,162.19,172,158Z"/><path id="_Path_29" data-name="&lt;Path&gt;" class="cls-54" d="M173.14,157.87c1.94-1.44,2.38-2.5,3.51-3.93.76-1,2.9-3.5,6.44-2,0,0,3.91,1.44,3.57,3.9,0,0,.1,3.17-6.61,7.95a12.54,12.54,0,0,1-8.6,1.45,4,4,0,0,1-2.54-1.5C168.4,162.83,168.84,161.06,173.14,157.87Z"/><path id="_Path_30" data-name="&lt;Path&gt;" class="cls-54" d="M169.63,167.6s-2.68-.55-3.18-1.76C166.45,165.84,166.71,167.5,169.63,167.6Z"/></g></g><g id="_Group_60" data-name="&lt;Group&gt;"><path id="_Path_31" data-name="&lt;Path&gt;" class="cls-51" d="M176.13,181.84a.21.21,0,0,1-.21-.22A25.27,25.27,0,0,1,188.77,161s7.38-3.85,11.52.18c0,0,3.45,4.36,2,5.38a86.3,86.3,0,0,0-16.44,12.72c-.45.44-1-.67-2.2.14S181.23,182.34,176.13,181.84Z"/><path id="_Path_32" data-name="&lt;Path&gt;" class="cls-55" d="M190.68,163s6.19-3.23,10.41-.68c.92,1.37,2.18,3.58,1.21,4.27a86.3,86.3,0,0,0-16.44,12.72c-.45.44-1-.67-2.2.14-1,.69-2.1,2.39-5.69,2.5A25.24,25.24,0,0,1,190.68,163Z"/></g><path id="_Path_33" data-name="&lt;Path&gt;" class="cls-56" d="M171.46,184.1,162,189.31a2.39,2.39,0,0,1-2.25,0l-1.39-.73a1.17,1.17,0,0,1-.44-1.67l1-2.12S172.28,177.58,171.46,184.1Z"/><path id="_Path_34" data-name="&lt;Path&gt;" class="cls-57" d="M170.62,181.84l-8.35,4.6a1.89,1.89,0,0,1-1.79,0l-1.11-.57a.94.94,0,0,1-.36-1.33l6.24-5.67S166.23,180.52,170.62,181.84Z"/><path id="_Path_35" data-name="&lt;Path&gt;" class="cls-58" d="M140.6,185.27A25.54,25.54,0,0,1,144.14,163s3.58-5.69,10-.27a14,14,0,0,1,4.3,13.36s-5.09,18.51,1.66,21.59c3,1.39,7.8-2.1,12.14-5.64,3-2.43,13.58-12.82,13.58-12.82s-9.32,12.5-16.45,18.37a13.7,13.7,0,0,1-13,2.65C149.56,198.22,142.21,192.53,140.6,185.27Z"/><g id="_Group_61" data-name="&lt;Group&gt;"><path id="_Path_36" data-name="&lt;Path&gt;" class="cls-48" d="M138.27,196.11c-8.63.83-6.32-3.72-6.32-3.72,2.2-4.74,8.47-7.43,8.47-7.43a3.85,3.85,0,0,0,1.74-1.6,1,1,0,0,1,1.14-.6l3.83,1.47a2,2,0,0,1,1.22,1.35l.59,2.15s2.46,6.92,2.92,9.05a.22.22,0,0,1-.34.23,15.13,15.13,0,0,0-3.35-1.57c-2.73-.81-6.26,0-7.53.31A14.72,14.72,0,0,1,138.27,196.11Z"/><path id="_Path_37" data-name="&lt;Path&gt;" class="cls-59" d="M139.39,194.36a.43.43,0,0,1-.77-.17c-.12-1.32.17-3.69,3.34-5.25a7.73,7.73,0,0,0,3.1-2.27.86.86,0,0,1,1.21-.32l1,.7a1.14,1.14,0,0,1,.37,1.51,5.56,5.56,0,0,1-2.54,2C141.87,191.9,140.78,192.61,139.39,194.36Z"/></g><path id="_Path_38" data-name="&lt;Path&gt;" class="cls-48" d="M155.19,163.1a1.35,1.35,0,0,1,.17,1.63A86.31,86.31,0,0,0,148.09,183a1,1,0,0,1-1.23.65l-3.24-1.15a1.64,1.64,0,0,1-1.09-1.36c-.34-3.12-.57-12.37,4.81-20.06a2,2,0,0,1,1.62-.91A8.89,8.89,0,0,1,155.19,163.1Z"/><g id="_Group_62" data-name="&lt;Group&gt;"><g id="_Clip_Group_3" data-name="&lt;Clip Group&gt;" class="cls-3"><g class="cls-60"><g id="_Group_63" data-name="&lt;Group&gt;" class="cls-3"><path id="_Path_39" data-name="&lt;Path&gt;" class="cls-41" d="M147.11,164.92l1-.16a2.34,2.34,0,0,0-1.1-.11l-1,.16a2.22,2.22,0,0,1,1.1.11Z"/></g></g></g><g id="_Clip_Group_4" data-name="&lt;Clip Group&gt;" class="cls-3"><g class="cls-61"><g id="_Group_64" data-name="&lt;Group&gt;" class="cls-3"><path id="_Path_40" data-name="&lt;Path&gt;" class="cls-41" d="M147.07,171.63l1-.16a2.79,2.79,0,0,0,2.16-2.47,3.81,3.81,0,0,0-2.13-4.24l-1,.16a3.82,3.82,0,0,1,2.13,4.24,2.8,2.8,0,0,1-2.17,2.47Z"/></g></g></g><g id="_Group_65" data-name="&lt;Group&gt;"><path id="_Path_41" data-name="&lt;Path&gt;" class="cls-62" d="M147.11,164.92c-1.5-.52-3,.53-3.27,2.36a3.83,3.83,0,0,0,2.13,4.24c1.49.52,3-.53,3.27-2.36A3.82,3.82,0,0,0,147.11,164.92Z"/></g><path id="_Path_42" data-name="&lt;Path&gt;" class="cls-63" d="M143.26,168.27a2.79,2.79,0,0,1,.52-1.61,2.9,2.9,0,0,1,3.11-1.32,2.94,2.94,0,0,1,1.69,1.8,4.48,4.48,0,0,1,.18,1.92,2.33,2.33,0,0,1-2.84,2.14,4.22,4.22,0,0,1-1.59-.75A2.74,2.74,0,0,1,143.26,168.27Z"/></g><path id="_Path_43" data-name="&lt;Path&gt;" class="cls-45" d="M161,197.72a3.68,3.68,0,0,0,1.08.29,3.8,3.8,0,0,1-2-.29c-6.75-3.08-1.66-21.59-1.66-21.59a14,14,0,0,0-4.3-13.36,8.81,8.81,0,0,0-4.87-2.32c1.54-.13,3.47.39,5.77,2.32a14,14,0,0,1,4.3,13.36S154.29,194.64,161,197.72Z"/><g id="_Group_66" data-name="&lt;Group&gt;"><g id="_Group_67" data-name="&lt;Group&gt;"><path id="_Path_44" data-name="&lt;Path&gt;" class="cls-48" d="M160.92,162.84l-4.25-2.38a.55.55,0,0,0-.82.38,1.11,1.11,0,0,0,.52,1.15l3.75,2.22Z"/><g id="_Group_68" data-name="&lt;Group&gt;"><path id="_Path_45" data-name="&lt;Path&gt;" class="cls-64" d="M159.75,163.15a3.32,3.32,0,0,1,2.95-.5,1.38,1.38,0,0,1,.89,1.53,3.51,3.51,0,0,1-2,2.45Z"/><path id="_Path_46" data-name="&lt;Path&gt;" class="cls-65" d="M161.43,166.75a.12.12,0,0,0,.1-.11,3.08,3.08,0,0,0-1.79-3.52.22.22,0,0,0-.19,0,2.47,2.47,0,0,0-.93,2.6S159,167.08,161.43,166.75Z"/></g></g><g id="_Group_69" data-name="&lt;Group&gt;"><path id="_Path_47" data-name="&lt;Path&gt;" class="cls-48" d="M160.25,158.65a.33.33,0,0,1,.18.27c.09.46,1,.87,1,.87,2.29,1,2.27,1.8,2.27,1.8.05.93-.7.65-.7.65a.51.51,0,0,1-.18-.83c.12-.85-2.71-1.68-2.71-1.68-1.3-.49-1.47-1.15-1.47-1.48a.16.16,0,0,1,.22-.14Z"/><g id="_Group_70" data-name="&lt;Group&gt;"><g id="_Group_71" data-name="&lt;Group&gt;"><path id="_Path_48" data-name="&lt;Path&gt;" class="cls-66" d="M145.2,155.42a3.33,3.33,0,0,1,3-.51,1.39,1.39,0,0,1,.89,1.53,3.51,3.51,0,0,1-2,2.45Z"/><path id="_Path_49" data-name="&lt;Path&gt;" class="cls-67" d="M146.87,159a.12.12,0,0,0,.11-.1c.08-.49.32-2.74-1.78-3.52a.18.18,0,0,0-.2,0,2.48,2.48,0,0,0-.93,2.6S144.42,159.34,146.87,159Z"/></g><path id="_Path_50" data-name="&lt;Path&gt;" class="cls-48" d="M151.55,158.08l-3.27-1.71a.54.54,0,0,0-.79.4,1.1,1.1,0,0,0,.55,1.13l3.81,2.1Z"/><g id="_Group_72" data-name="&lt;Group&gt;"><path id="_Path_51" data-name="&lt;Path&gt;" class="cls-50" d="M154,161.11a2.91,2.91,0,0,0,1.66-.48,5,5,0,0,0,1.08-1.08c.84-1,1.5-1.83,3.92-.75l.51-1.14c-3.29-1.48-4.51,0-5.4,1.1a4.28,4.28,0,0,1-.81.83,2.7,2.7,0,0,1-2.29,0,.71.71,0,0,0-.88.3.56.56,0,0,0,.26.8A5.47,5.47,0,0,0,154,161.11Z"/></g><g id="_Group_73" data-name="&lt;Group&gt;"><g id="_Group_74" data-name="&lt;Group&gt;" class="cls-3"><g id="_Clip_Group_5" data-name="&lt;Clip Group&gt;" class="cls-3"><g class="cls-68"><g id="_Group_75" data-name="&lt;Group&gt;"><path id="_Path_52" data-name="&lt;Path&gt;" class="cls-69" d="M166.56,160.06l-4-1.89a.35.35,0,0,0-.39.07l4,1.89a.41.41,0,0,1,.4-.07Z"/></g></g></g><g id="_Clip_Group_6" data-name="&lt;Clip Group&gt;" class="cls-3"><g class="cls-70"><g id="_Group_76" data-name="&lt;Group&gt;" class="cls-3"><path id="_Path_53" data-name="&lt;Path&gt;" class="cls-69" d="M166.16,160.13l-4-1.89a.87.87,0,0,0-.24.23l4,1.89a1,1,0,0,1,.23-.23Z"/><path id="_Path_54" data-name="&lt;Path&gt;" class="cls-71" d="M165.93,160.36l-4-1.89a1.55,1.55,0,0,0-.19.36l4,1.9a1.3,1.3,0,0,1,.19-.37Z"/><path id="_Path_55" data-name="&lt;Path&gt;" class="cls-69" d="M165.74,160.73l-4-1.9a1.17,1.17,0,0,0-.06.44.43.43,0,0,0,.19.36l4,1.89a.41.41,0,0,1-.2-.36,1.14,1.14,0,0,1,.07-.43Z"/></g></g></g><g id="_Group_77" data-name="&lt;Group&gt;"><path id="_Path_56" data-name="&lt;Path&gt;" class="cls-72" d="M166.16,160.13a1.26,1.26,0,0,0-.49,1c0,.37.3.49.6.29a1.28,1.28,0,0,0,.49-1C166.73,160.05,166.46,159.93,166.16,160.13Z"/></g></g></g><g id="_Group_78" data-name="&lt;Group&gt;"><g id="_Group_79" data-name="&lt;Group&gt;" class="cls-3"><g id="_Clip_Group_7" data-name="&lt;Clip Group&gt;" class="cls-3"><g class="cls-73"><g id="_Group_80" data-name="&lt;Group&gt;"><path id="_Path_57" data-name="&lt;Path&gt;" class="cls-47" d="M162.65,157.88l-1.27-.59a.57.57,0,0,0-.58.11l1.27.59a.57.57,0,0,1,.58-.11Z"/></g></g></g><g id="_Clip_Group_8" data-name="&lt;Clip Group&gt;" class="cls-3"><g class="cls-74"><g id="_Group_81" data-name="&lt;Group&gt;" class="cls-3"><path id="_Path_58" data-name="&lt;Path&gt;" class="cls-47" d="M162.07,158l-1.27-.59a1.33,1.33,0,0,0-.34.33l1.28.59a1.15,1.15,0,0,1,.33-.33Z"/><path id="_Path_59" data-name="&lt;Path&gt;" class="cls-37" d="M161.74,158.32l-1.28-.59a2.43,2.43,0,0,0-.28.53l1.28.59a1.68,1.68,0,0,1,.28-.53Z"/><path id="_Path_60" data-name="&lt;Path&gt;" class="cls-47" d="M161.46,158.85l-1.28-.59a1.56,1.56,0,0,0-.09.63.57.57,0,0,0,.29.5l1.27.59a.59.59,0,0,1-.29-.51,1.55,1.55,0,0,1,.1-.62Z"/></g></g></g><g id="_Group_82" data-name="&lt;Group&gt;"><path id="_Path_61" data-name="&lt;Path&gt;" class="cls-45" d="M162.07,158a1.83,1.83,0,0,0-.71,1.48c0,.53.44.7.87.4a1.79,1.79,0,0,0,.7-1.48C162.89,157.87,162.5,157.68,162.07,158Z"/></g></g></g><g id="_Group_83" data-name="&lt;Group&gt;"><path id="_Path_62" data-name="&lt;Path&gt;" class="cls-45" d="M163.44,154c-.71-1.42-2.05-2.18-3-1.74a1.25,1.25,0,0,1,.3-.21c1-.48,2.35.29,3.06,1.73s.5,3-.47,3.47l0,0A2.84,2.84,0,0,0,163.44,154Z"/><g id="_Group_84" data-name="&lt;Group&gt;"><path id="_Path_63" data-name="&lt;Path&gt;" class="cls-48" d="M157.67,157.39a.16.16,0,0,0,.18.16.17.17,0,0,0,.17-.18,1.37,1.37,0,0,1,.83-1.19l1.88-.77a.16.16,0,0,0,.1-.23.19.19,0,0,0-.23-.1l-1.89.77A1.69,1.69,0,0,0,157.67,157.39Z"/></g><path id="_Path_64" data-name="&lt;Path&gt;" class="cls-75" d="M160.25,155.51c.71,1.43,2.08,2.21,3.06,1.72s1.18-2,.47-3.47-2.08-2.21-3.06-1.73S159.54,154.07,160.25,155.51Z"/></g><path id="_Path_65" data-name="&lt;Path&gt;" class="cls-48" d="M151.61,154.49a1.49,1.49,0,0,1-1.87.19c-.8-.53-3-2-4.43-1.64,0,0-.53.44-.93.1,0,0-.57-.9,1.27-.64a12.77,12.77,0,0,1,3,.85,1.25,1.25,0,0,0,.87-.07c.51-.2.46-.49.89-.51S152.16,154,151.61,154.49Z"/><g id="_Group_85" data-name="&lt;Group&gt;"><g id="_Group_86" data-name="&lt;Group&gt;" class="cls-3"><g id="_Clip_Group_9" data-name="&lt;Clip Group&gt;" class="cls-3"><g class="cls-76"><g id="_Group_87" data-name="&lt;Group&gt;" class="cls-3"><path id="_Path_66" data-name="&lt;Path&gt;" class="cls-69" d="M150.82,152.45l-3.95-2a.41.41,0,0,0-.4.06l3.94,2a.43.43,0,0,1,.41-.06Z"/></g></g></g><g id="_Clip_Group_10" data-name="&lt;Clip Group&gt;" class="cls-3"><g class="cls-77"><g id="_Group_88" data-name="&lt;Group&gt;" class="cls-3"><path id="_Path_67" data-name="&lt;Path&gt;" class="cls-69" d="M150.41,152.51l-3.94-2a.83.83,0,0,0-.24.22l4,2a1,1,0,0,1,.23-.23Z"/><path id="_Path_68" data-name="&lt;Path&gt;" class="cls-71" d="M150.18,152.74l-4-2a1.27,1.27,0,0,0-.2.36l3.94,2a1.17,1.17,0,0,1,.21-.36Z"/><path id="_Path_69" data-name="&lt;Path&gt;" class="cls-69" d="M150,153.1l-3.94-2a1,1,0,0,0-.08.44.38.38,0,0,0,.19.35l3.94,2a.39.39,0,0,1-.18-.35,1.08,1.08,0,0,1,.07-.43Z"/></g></g></g><g id="_Group_89" data-name="&lt;Group&gt;"><path id="_Path_70" data-name="&lt;Path&gt;" class="cls-78" d="M150.41,152.51a1.28,1.28,0,0,0-.51,1c0,.36.28.5.59.29a1.27,1.27,0,0,0,.52-1C151,152.44,150.72,152.31,150.41,152.51Z"/></g></g></g><g id="_Group_90" data-name="&lt;Group&gt;"><g id="_Group_91" data-name="&lt;Group&gt;" class="cls-3"><g id="_Clip_Group_11" data-name="&lt;Clip Group&gt;" class="cls-3"><g class="cls-79"><g id="_Group_92" data-name="&lt;Group&gt;"><path id="_Path_71" data-name="&lt;Path&gt;" class="cls-47" d="M151.55,152.59l-1.26-.62a.6.6,0,0,0-.59.09l1.26.62a.6.6,0,0,1,.59-.09Z"/></g></g></g><g id="_Clip_Group_12" data-name="&lt;Clip Group&gt;" class="cls-3"><g class="cls-80"><g id="_Group_93" data-name="&lt;Group&gt;" class="cls-3"><path id="_Path_72" data-name="&lt;Path&gt;" class="cls-47" d="M151,152.68l-1.26-.62a1.76,1.76,0,0,0-.34.33l1.26.62a1.32,1.32,0,0,1,.34-.33Z"/><path id="_Path_73" data-name="&lt;Path&gt;" class="cls-37" d="M150.62,153l-1.26-.62a1.88,1.88,0,0,0-.29.52l1.26.62a1.88,1.88,0,0,1,.29-.52Z"/><path id="_Path_74" data-name="&lt;Path&gt;" class="cls-47" d="M150.33,153.53l-1.26-.62a1.76,1.76,0,0,0-.1.63.59.59,0,0,0,.27.51l1.26.62a.61.61,0,0,1-.28-.52,1.77,1.77,0,0,1,.11-.62Z"/></g></g></g><g id="_Group_94" data-name="&lt;Group&gt;"><path id="_Path_75" data-name="&lt;Path&gt;" class="cls-45" d="M151,152.68a1.82,1.82,0,0,0-.74,1.47c0,.53.42.71.86.43a1.86,1.86,0,0,0,.74-1.48C151.79,152.58,151.4,152.39,151,152.68Z"/></g></g></g><g id="_Group_95" data-name="&lt;Group&gt;"><g id="_Group_96" data-name="&lt;Group&gt;"><path id="_Path_76" data-name="&lt;Path&gt;" class="cls-81" d="M143.63,147.53c.93,1.3,2.41,1.84,3.29,1.21s.85-2.21-.1-3.51-2.41-1.85-3.29-1.21S142.69,146.22,143.63,147.53Z"/><path id="_Path_77" data-name="&lt;Path&gt;" class="cls-45" d="M146.52,145.5c-.92-1.28-2.37-1.82-3.25-1.23a1.24,1.24,0,0,1,.26-.25c.88-.64,2.36-.1,3.29,1.21s1,2.87.1,3.51l0,0A2.85,2.85,0,0,0,146.52,145.5Z"/></g><g id="_Group_97" data-name="&lt;Group&gt;"><path id="_Path_78" data-name="&lt;Path&gt;" class="cls-48" d="M152,154.9h0a.32.32,0,0,0,.08-.47l-5.67-7.35a.19.19,0,0,0-.25,0,.19.19,0,0,0,0,.26Z"/></g></g><g id="_Group_98" data-name="&lt;Group&gt;"><path id="_Path_79" data-name="&lt;Path&gt;" class="cls-50" d="M150.69,154.19c-.41-.51.27-1.24.69-1a3.5,3.5,0,0,1,.93,3.93,4.65,4.65,0,0,0-.16,1.15,2.69,2.69,0,0,0,1.39,1.82.71.71,0,0,1,.3.88.57.57,0,0,1-.8.28,5.41,5.41,0,0,1-1.51-1.3,2.86,2.86,0,0,1-.64-1.6,5.06,5.06,0,0,1,.21-1.51C151.32,155.88,151.55,155.05,150.69,154.19Z"/><path id="_Path_80" data-name="&lt;Path&gt;" class="cls-47" d="M154,161.11s-1.83-.35-2.36-1.08-.29.48-.29.48l2.31,1.13Z"/></g></g></g></g></g><path class="cls-82" d="M283.19,514.12l-1.28.75a51.7,51.7,0,0,1-14.83,5.58,68.1,68.1,0,0,1-10.77,1.47c-2.28-18.28-4.29-40.24-6.56-59.45a84.48,84.48,0,0,0,12.35-2l1.11-.32a25,25,0,0,0,8.58-3Z"/><path class="cls-82" d="M325.88,489.32,310.93,498l-8.36,4.86q-3-24.35-4.51-48.89c-.05-.87-.21-2.08-.41-3.43l-.17.11.28-3.37a.41.41,0,0,1,0-.11h.31l6.35-.85a23.85,23.85,0,0,0,10-5.59,18,18,0,0,0,2.16-1.81Z"/><path class="cls-83" d="M430.52,422.41c1.64,1.59,3.89,2.2,6.74,2.19l-5.7,3.31C429.21,423.4,428.6,420.55,430.52,422.41Z"/><path class="cls-83" d="M472,404.41l-17.45,10.15-15.77,9.17c-12.13-14.63-30.73-39-30.73-39-3-2.87-2.76-8.08.49-11.61s8.3-4,11.28-1.17c0,0,29.14,20.06,43.67,31a6.75,6.75,0,0,0-1.62-3.87C459.72,396.71,465.72,399.44,472,404.41Z"/><path class="cls-83" d="M479.08,400.28l-.47.28C478.53,400.28,478.71,400.2,479.08,400.28Z"/><g id="_7" data-name="7"><path id="_Path_81" data-name="&lt;Path&gt;" class="cls-84" d="M424.05,328H406.43s-7.28,4.12-7.38,11.15S406.43,381,406.43,381c0,2.8,3.71,5.07,8.29,5.07s8.3-2.27,8.3-5.07c0,0,8.24-35,8.53-41.81S424.05,328,424.05,328Z"/><path id="_8" data-name="8" class="cls-85" d="M411.92,326.45s-1.19,9.15,6.63,12.65,13.46,5.35,13.77,8.59,5-8.06,2.67-15.92c-2.09-7-8.33-11.91-15.47-11.56S411.92,326.45,411.92,326.45Z"/><path id="_Path_82" data-name="&lt;Path&gt;" class="cls-86" d="M420.88,323.43s2.88,11.35-7.48,16.68-17.93,8.37-17.93,12.47-8-9.5-5.83-19.65a21,21,0,0,1,19.87-16.41C419.44,316.08,420.88,323.43,420.88,323.43Z"/><path id="_Path_83" data-name="&lt;Path&gt;" class="cls-87" d="M413.53,314.48s-.16,11.64,10.15,14.87,17.65,4.75,18.52,8.76,5.07-10.82,1-20.33c-3.64-8.52-12.18-13.72-21.07-12.24S413.53,314.48,413.53,314.48Z"/><path id="_Path_84" data-name="&lt;Path&gt;" class="cls-88" d="M405.25,314.89s-.3,6-6.2,7.06-10.06,1.39-10.69,3.41-2.48-5.88.12-10.53a10.78,10.78,0,0,1,12.24-5.05C405.66,311.07,405.25,314.89,405.25,314.89Z"/><path id="_Path_85" data-name="&lt;Path&gt;" class="cls-89" d="M421.58,306.49s3.44,3.26,7.32.83,6.41-4.37,7.85-3.55-1.8-4.61-5.79-5.92a8.27,8.27,0,0,0-9.62,3.41C419.27,304.53,421.58,306.49,421.58,306.49Z"/><path id="_Path_86" data-name="&lt;Path&gt;" class="cls-90" d="M414,311.61c-1.29,5.07,3.11,11.88,9.39,13.12s15.51,2.73,15.51,2.73.5-13.79-4.53-18c-3-2.56-9.88-6.71-14.48-5.41S414,311.61,414,311.61Z"/><path id="_Path_87" data-name="&lt;Path&gt;" class="cls-91" d="M408.11,295c-8.75,1-16.62,10.09-14.58,18.72s5.54,21.16,5.54,21.16,15.78-9.84,21.32-12.87,8.3-18.25,3.35-23.44S408.11,295,408.11,295Z"/><path id="_Path_88" data-name="&lt;Path&gt;" class="cls-92" d="M414.5,305.5s-9.15,4.25-15.33-3.68-9.95-13.85-13.42-13.2,6.77-8.28,15.72-8.07a18.09,18.09,0,0,1,17.07,14.21C420.5,303.11,414.5,305.5,414.5,305.5Z"/><path id="_Path_89" data-name="&lt;Path&gt;" class="cls-93" d="M416.44,299.49s5.53,5.23,11.76,1.33,10.3-7,12.62-5.7-2.9-7.41-9.31-9.52a13.29,13.29,0,0,0-15.45,5.48C412.73,296.33,416.44,299.49,416.44,299.49Z"/></g><g class="cls-3"><path class="cls-94" d="M472.85,79.91c3.11-1.8,5.64-.36,5.65,3.22l.12,42.08a12.36,12.36,0,0,1-5.62,9.73l-96.47,55.7c-3.11,1.8-5.64.36-5.65-3.22l-.12-42.08a12.38,12.38,0,0,1,5.61-9.73Z"/><path class="cls-95" d="M473.78,79.47l.4-.14.25-.07.23-.05.29,0,.17,0h.45a2.7,2.7,0,0,1,.41.06l.1,0a1.58,1.58,0,0,1,.31.09l.1,0a2.53,2.53,0,0,1,.37.18l-3.79-2.2,0,0-.28-.14-.06,0-.09,0-.15,0-.16,0-.1,0-.06,0-.34,0h-.46l-.17,0H471l-.14,0-.23,0-.12,0-.13,0-.4.14-.14,0-.08,0a6.64,6.64,0,0,0-.71.35l-96.47,55.7a7.48,7.48,0,0,0-1.06.74c-.12.08-.22.19-.33.28s-.34.28-.5.44l-.21.23-.19.2-.21.23c-.16.18-.31.36-.46.55l-.15.2a1,1,0,0,1-.08.11,2.43,2.43,0,0,0-.14.2,5.25,5.25,0,0,0-.33.49c-.1.15-.2.31-.29.47l0,0,0,0-.22.4q-.12.22-.24.48c-.07.14-.14.29-.2.44v0l-.21.51c-.07.18-.13.35-.19.53s-.05.18-.08.27a.36.36,0,0,1,0,.11c0,.07,0,.13-.05.19-.06.22-.12.44-.16.65s-.05.26-.07.39l0,.21c0,.06,0,.12,0,.18a8.48,8.48,0,0,0-.07,1.11l.12,42.08c0,1.78.63,3,1.64,3.61l3.79,2.2a3.91,3.91,0,0,1-1.64-3.61l-.12-42.08a9.46,9.46,0,0,1,.1-1.29,1.55,1.55,0,0,1,0-.21,11.41,11.41,0,0,1,.28-1.23.76.76,0,0,1,0-.11,9.7,9.7,0,0,1,.49-1.33v0a13.54,13.54,0,0,1,.66-1.32l0,0c.24-.41.51-.81.79-1.2l.08-.1c.26-.35.53-.68.82-1l.19-.19a7.5,7.5,0,0,1,.71-.67c.11-.09.21-.2.32-.28a8.83,8.83,0,0,1,1.06-.74l96.48-55.7a5.83,5.83,0,0,1,.71-.35Z"/></g><g class="cls-3"><path class="cls-94" d="M472.85,152.43c3.11-1.79,5.64-.35,5.65,3.23l.12,42.08a12.33,12.33,0,0,1-5.62,9.72l-96.47,55.71c-3.11,1.79-5.64.35-5.65-3.23l-.12-42.08a12.35,12.35,0,0,1,5.61-9.72Z"/><path class="cls-96" d="M473.78,152l.4-.13.25-.07.23,0,.29-.05.17,0h.45a2.7,2.7,0,0,1,.41.05l.1,0,.31.09.1,0a2.48,2.48,0,0,1,.37.17l-3.79-2.2,0,0-.28-.13-.06,0-.09,0-.15,0-.16,0-.1,0h-.06a1.86,1.86,0,0,0-.34,0h-.46l-.17,0-.16,0-.14,0-.23.05-.12,0-.13,0-.4.13-.14.05-.08,0c-.23.1-.47.22-.71.35l-96.47,55.7a8.41,8.41,0,0,0-1.06.74c-.12.09-.22.19-.33.29s-.34.28-.5.43l-.21.23-.19.2-.21.23c-.16.18-.31.37-.46.56l-.15.2a1,1,0,0,0-.08.11l-.14.19c-.12.16-.23.33-.33.49s-.2.32-.29.48l0,0,0,0c-.07.13-.14.26-.22.39l-.24.48c-.07.15-.14.29-.2.44v.05l-.21.5c-.07.18-.13.36-.19.54s-.05.17-.08.26a.56.56,0,0,1,0,.12c0,.06,0,.13-.05.19-.06.21-.12.43-.16.65s-.05.26-.07.39l0,.2c0,.06,0,.13,0,.19a8.23,8.23,0,0,0-.07,1.1l.12,42.08a4,4,0,0,0,1.64,3.62l3.79,2.2a3.94,3.94,0,0,1-1.64-3.62l-.12-42.08a9.58,9.58,0,0,1,.1-1.29,1.18,1.18,0,0,1,0-.2,10.89,10.89,0,0,1,.28-1.23.56.56,0,0,1,0-.12,10.21,10.21,0,0,1,.49-1.33v0a13.54,13.54,0,0,1,.66-1.32l0,0a14,14,0,0,1,.79-1.21l.08-.1a11.34,11.34,0,0,1,.82-1l.19-.2a7.4,7.4,0,0,1,.71-.66l.32-.29a8.73,8.73,0,0,1,1.06-.73l96.48-55.71a7.77,7.77,0,0,1,.71-.35Z"/></g><g class="cls-3"><g class="cls-97"><path class="cls-98" d="M463.51,108.15l-38.09,22a10.77,10.77,0,0,0-4.88,8.45c0,3.12,2.22,4.36,4.92,2.8l38.09-22a10.75,10.75,0,0,0,4.88-8.45c0-3.1-2.21-4.36-4.92-2.8"/></g></g><g class="cls-3"><g class="cls-99"><path class="cls-100" d="M388,160l-6,3.47a.73.73,0,0,0-.29.35l-2.54,5.86a.5.5,0,0,0,0,.43.24.24,0,0,0,.32,0l.92-.53v-.41a.78.78,0,0,1,.36-.61l-.61.35,2.06-4.77,5.82-3.36v3.58l-7.28,4.2c.19-.11.35,0,.35.21v.4l6.93-4V160"/><path class="cls-100" d="M387.93,154.57l0,5.44v5.2l0,6.5.71-.41-.05-16.73-.36.2c-.19.11-.35,0-.35-.2m10.89-6.28a.77.77,0,0,1-.35.6l-.36.21.05,16.73.71-.41-.05-17.13M388,154.4h0m5.4-9.23a.92.92,0,0,0-.26.26L388,154.22a1.11,1.11,0,0,0-.07.16.81.81,0,0,1,.32-.42l.86-.5,4.22-7.3,4.24,2.42.51-.29v-.58l-4.5-2.57a.29.29,0,0,0-.25,0"/><path class="cls-100" d="M408.6,127.58l-10.18,5.88a.78.78,0,0,0-.25.26.69.69,0,0,0-.1.35l0,13.64v.58l.35-.21c.2-.11.36,0,.36.21l0-14.22,9.47-5.47.08,31.36.36-.21c.2-.11.36,0,.36.2L409,127.79a.28.28,0,0,0-.11-.24.29.29,0,0,0-.25,0"/><path class="cls-100" d="M380.68,168.6a.78.78,0,0,0-.36.61v7.31c0,.23.17.32.36.21-.19.11-.35,0-.36-.21a.79.79,0,0,1,.36-.61l.35-.2,0-6.5v-.4c0-.23-.16-.32-.35-.21"/><path class="cls-100" d="M398.46,148.08l-.35.21-.51.29-8.46,4.88-.86.5a.81.81,0,0,0-.32.42v0h0a.55.55,0,0,0,0,.17c0,.22.16.31.35.2l.36-.2,9.47-5.47.36-.21a.77.77,0,0,0,.35-.6c0-.23-.16-.32-.36-.21"/><path class="cls-100" d="M402.24,134.18a.79.79,0,0,0-.35.61v2.93c0,.22.16.32.35.21a.79.79,0,0,0,.36-.62v-2.93c0-.22-.16-.31-.36-.2"/><path class="cls-100" d="M404.79,132.71a.78.78,0,0,0-.35.61v2.93c0,.22.15.32.35.2a.78.78,0,0,0,.36-.61v-2.93c0-.22-.16-.31-.36-.2"/><path class="cls-100" d="M402.26,140a.79.79,0,0,0-.35.61v2.92c0,.23.16.32.35.21a.78.78,0,0,0,.36-.61v-2.92c0-.23-.16-.32-.36-.21"/><path class="cls-100" d="M404.81,138.56a.77.77,0,0,0-.35.61v2.92c0,.23.15.33.35.21a.77.77,0,0,0,.35-.62v-2.92c0-.22-.16-.31-.36-.2"/><path class="cls-100" d="M402.28,145.88a.75.75,0,0,0-.35.61v2.92c0,.23.17.32.36.21a.79.79,0,0,0,.35-.62v-2.92c0-.22-.17-.32-.36-.2"/><path class="cls-100" d="M404.82,144.41a.78.78,0,0,0-.35.61v2.92c0,.23.16.32.35.21a.79.79,0,0,0,.36-.62v-2.92c0-.23-.16-.32-.36-.2"/><path class="cls-100" d="M402.29,151.73a.78.78,0,0,0-.35.61v2.92c0,.23.16.32.35.21a.79.79,0,0,0,.36-.62v-2.92c0-.23-.16-.32-.36-.2"/><path class="cls-100" d="M404.84,150.25a.78.78,0,0,0-.35.62v2.92c0,.23.15.32.35.21a.79.79,0,0,0,.36-.62v-2.92c0-.23-.16-.32-.36-.21"/><path class="cls-100" d="M391.19,156l4.38-2.53v3.57l-4.38,2.53V156m4.74-3.55-5.09,2.93a.72.72,0,0,0-.25.27.68.68,0,0,0-.11.34l.36-.2-.36.2v4.39a.25.25,0,0,0,.11.23.25.25,0,0,0,.25,0l5.09-2.94a.66.66,0,0,0,.25-.27.68.68,0,0,0,.11-.35l0-4.39c0-.11,0-.19-.11-.22a.22.22,0,0,0-.24,0"/><path class="cls-100" d="M391.21,163.33l4.38-2.53v3.58l-4.38,2.53v-3.58m4.74-3.55-5.09,2.94a.69.69,0,0,0-.25.26.75.75,0,0,0-.11.36l.36-.21-.36.21v4.39a.24.24,0,0,0,.11.22.23.23,0,0,0,.25,0L396,165a.72.72,0,0,0,.25-.27.71.71,0,0,0,.11-.34V160a.27.27,0,0,0-.11-.23.25.25,0,0,0-.25,0"/><path class="cls-100" d="M402.31,157.57a.79.79,0,0,0-.35.62v2.92c0,.22.16.31.35.2a.78.78,0,0,0,.36-.61v-2.92c0-.23-.16-.32-.36-.21"/><path class="cls-100" d="M404.86,156.1a.78.78,0,0,0-.35.62v2.92c0,.22.15.32.35.2a.77.77,0,0,0,.35-.61v-2.92c0-.23-.16-.32-.36-.21"/><path class="cls-100" d="M385.78,168.59l-2.55,1.47a.7.7,0,0,0-.25.26.66.66,0,0,0-.1.34v4l.71-.41v-3.57l1.83-1.06v3.57l.71-.41v-4a.27.27,0,0,0-.1-.23.29.29,0,0,0-.25,0"/><path class="cls-100" d="M408.69,159.75l-.36.21-9.46,5.46-.71.41-9.47,5.47-.71.41-1.84,1.06-.71.41-1.83,1.06-.71.41-1.84,1.06-.35.2a.79.79,0,0,0-.36.61c0,.23.17.32.36.21l28-16.16a.79.79,0,0,0,.36-.62c0-.22-.16-.31-.36-.2"/><path class="cls-100" d="M382.08,150.22l-1.63-1.54,1.69-2.93,0-.08,1.17-2.69,1.57-.91,1.81,1a.25.25,0,0,0,.25,0l2.39-1.38,1.6.9L389.36,146l-7.28,4.2m3-9.05-1.91,1.1a.76.76,0,0,0-.29.36l-1.25,2.88-1.87,3.25a.5.5,0,0,0,0,.56l1.92,1.82a.24.24,0,0,0,.28,0l7.64-4.41a.72.72,0,0,0,.28-.33l1.9-4c.1-.23.09-.45,0-.52l-1.92-1.09a.25.25,0,0,0-.25,0l-2.4,1.39-1.81-1a.25.25,0,0,0-.25,0"/></g></g><g class="cls-3"><g class="cls-101"><path class="cls-98" d="M464.86,179.61l-38.09,22a10.76,10.76,0,0,0-4.89,8.45c0,3.12,2.22,4.36,4.92,2.8l38.09-22a10.75,10.75,0,0,0,4.88-8.45c0-3.11-2.21-4.36-4.91-2.8"/></g></g><g class="cls-3"><g class="cls-102"><path class="cls-100" d="M385.43,242.2h0m0,0h0l-.07-24a1.51,1.51,0,0,1,.16-.63h0l10.72-1.37.07,25.71-10.38.82h0c-.31,0-.51-.18-.51-.57h0m1.18-25.6,15.19-8.77c.44-.26.8,0,.8.46l.07,23.95a1.75,1.75,0,0,1-.8,1.39l-4.85,2.8L397,215.54c0-.17-.09-.27-.23-.25l-10.12,1.3M401.8,207l-15.64,9a3.34,3.34,0,0,0-1.51,2.61l.07,24h0c0,.71.38,1.13.95,1.06h0l10.87-.86.14,0a.57.57,0,0,0,.19-.19.74.74,0,0,0,.16-.43v-4.91l4.86-2.81a3.35,3.35,0,0,0,1.51-2.61l0-11.57-.36.21c-.19.11-.35,0-.35-.2a.78.78,0,0,1,.35-.62l.36-.2,0-11.57c0-1-.69-1.35-1.52-.87"/><path class="cls-100" d="M392.08,229.61a.76.76,0,0,0-.33.44c-.08.25,0,.44.19.43l2.19-.23a.39.39,0,0,0,.14-.05.8.8,0,0,0,.33-.44c.07-.25,0-.44-.19-.43l-2.2.23a.35.35,0,0,0-.13.05"/><path class="cls-100" d="M407,214.48a.82.82,0,0,0-.25.27c-.14.23-.14.5,0,.57l1.86,1.06.71-.42a.22.22,0,0,1,.36.21.79.79,0,0,1-.35.61l-.72.41-1.84,3.2c-.14.23-.14.5,0,.57a.24.24,0,0,0,.24,0,.75.75,0,0,0,.26-.27l2.45-4.23a.85.85,0,0,0,.1-.35.25.25,0,0,0-.11-.23l-2.46-1.4a.25.25,0,0,0-.25,0"/><path class="cls-100" d="M409.36,216l-.71.42-5.3,3.06-.36.2a.78.78,0,0,0-.35.62c0,.22.16.31.35.2l.36-.21,5.3-3.06.72-.41a.79.79,0,0,0,.35-.61.22.22,0,0,0-.36-.21"/></g></g><path class="cls-103" d="M293.19,430.16s-9.05.66-13.46,0-13.9-4.86-19.42,4,28.9,26.25,37.95,26.91c5.86.43,13.67-.71,17.88-5.33,3.11-3.41,4.41-14.57-1.55-15.85C314.59,439.86,303.78,450,293.19,430.16Z"/><path class="cls-104" d="M262.79,431.21c-1.11,3.8.28,5.11,1.09,6.5,2.57,4.4,7.77,6.68,12.05,9.08,6.71,3.78,14,8.08,21.55,9.89,6.57,1.58,12.65-.11,19.08-1.51a4.57,4.57,0,0,1-.42.54c-4.21,4.62-12,5.76-17.88,5.33-9.05-.66-43.46-18.09-37.95-26.91A12.57,12.57,0,0,1,262.79,431.21Z"/><path class="cls-104" d="M283.42,435.83a1.19,1.19,0,0,1-.57-1.6l1.81-3.78c.9,0,1.81,0,2.68,0L285,435.27A1.19,1.19,0,0,1,283.42,435.83Z"/><path class="cls-105" d="M281.44,430.34l-2,4.13a1.2,1.2,0,0,1-2.17-1l1.64-3.42.8.15C280.24,430.23,280.82,430.29,281.44,430.34Z"/><path class="cls-106" d="M261.62,439.86s-9.05.67-13.46,0-13.9-4.85-19.41,4,28.9,26.26,37.94,26.92c5.86.43,13.68-.71,17.89-5.33,3.1-3.41,4.4-14.57-1.56-15.85C283,449.57,272.21,459.72,261.62,439.86Z"/><path class="cls-104" d="M231.22,440.92c-1.11,3.8.29,5.11,1.1,6.49,2.57,4.41,7.76,6.68,12,9.09,6.72,3.77,14,8.07,21.55,9.88,6.57,1.59,12.66-.11,19.09-1.51-.14.19-.28.39-.42.55-4.21,4.62-12,5.76-17.89,5.33-9-.66-43.46-18.09-37.94-26.92A12.69,12.69,0,0,1,231.22,440.92Z"/><path class="cls-104" d="M251.85,445.54a1.19,1.19,0,0,1-.56-1.6l1.81-3.79c.9,0,1.8,0,2.68,0L253.46,445A1.2,1.2,0,0,1,251.85,445.54Z"/><path class="cls-104" d="M249.88,440l-2,4.13a1.2,1.2,0,1,1-2.17-1l1.63-3.41c.28,0,.55.11.8.14C248.68,439.94,249.26,440,249.88,440Z"/><path class="cls-107" d="M272.61,246.62c-.08-1.72-.07-3.66,1.17-4.85a6,6,0,0,1,3.84-1.22,166,166,0,0,1,25.52.1l18,9.26a93.12,93.12,0,0,1-1.38,33c-1.2,5.37-2.88,10.62-4.07,16C312.14,315,313,331.62,313.88,348c.54,10.08,1.42,21.12,2.47,31.16a107.91,107.91,0,0,1,.89,17.41c-.21,3.58-.77,7.12-1,10.7-.22,3.22-.19,6.45-.16,9.68q.1,9.84.19,19.68c0,2.92.34,4.71-1.13,7.72-.59,1.2-4,1.16-5.3,1.33-4,.52-8.3,1-11.79-1-5.23-3-6.27-10-6.73-16l-5-65.24a147.22,147.22,0,0,0-5.38-28.19c-1.19-4.2-2.52-8.38-3.34-12.67a108.45,108.45,0,0,1-1.4-13.47q-.87-14-1.73-28.08C273.73,269.7,273.15,258,272.61,246.62Z"/><path class="cls-108" d="M272.05,241.94c1.07-1,2.67-1.2,4.14-1.31a178.39,178.39,0,0,1,27.45.11l19.38,10c1.62,11.8,3.48,22.45-1.48,35.5-2.11,5.52-3.1,11.42-4.38,17.19-3.83,17.28-2.91,35.21-2,52.88,0,.26,0,.53,0,.79a189.11,189.11,0,0,1-31.48,2.86c-1.07-5.89-2.45-11.75-4-17.35-1.28-4.52-2.71-9-3.59-13.62a117.4,117.4,0,0,1-1.51-14.5l-1.86-30.21c-.76-12.25-1.39-24.82-2-37.08C270.72,245.31,270.72,243.22,272.05,241.94Z"/><path class="cls-107" d="M250.49,252.08c0-1.71.13-3.65,1.43-4.77a6,6,0,0,1,3.91-1,166.94,166.94,0,0,1,25.47,1.53l17.46,10.25A93.06,93.06,0,0,1,295.54,291c-1.5,5.28-3.46,10.43-5,15.73-4.45,15.83-4.52,32.52-4.56,49,0,10.1.23,21.16.73,31.25a107.89,107.89,0,0,1-.09,17.43c-.4,3.56-1.16,7.07-1.61,10.63-.4,3.2-.55,6.43-.7,9.65q-.45,9.84-.91,19.67c-.13,2.91.07,4.72-1.56,7.64-.66,1.17-4,.93-5.37,1-4,.3-8.34.52-11.71-1.67C259.75,448,259.11,441,259,435q-.68-32.7-1.36-65.41a147.77,147.77,0,0,0-3.8-28.45c-1-4.26-2-8.5-2.62-12.83a109.17,109.17,0,0,1-.65-13.53q-.09-14.07-.17-28.14C250.31,275.2,250.39,263.49,250.49,252.08Z"/><path class="cls-109" d="M250.19,247.39c1.12-1,2.73-1.06,4.2-1.09a180.78,180.78,0,0,1,27.41,1.64l18.78,11c1,11.87,3.66,16.61-3.46,35.36-2.09,5.53-3.72,11.23-5.32,16.92-4.79,17-4.87,35-4.92,52.69,0,.26,0,.53,0,.79a188.46,188.46,0,0,1-31.6,1.1c-.74-5.94-1.79-11.87-3.06-17.54-1-4.59-2.2-9.15-2.82-13.81a117.75,117.75,0,0,1-.69-14.55l-.18-30.27c-.08-12.27,0-24.86.11-37.14C248.66,250.68,248.79,248.59,250.19,247.39Z"/><path class="cls-110" d="M273.48,114.29l2.26-2.06a58.22,58.22,0,0,1,14.07-3.37c0,5.74,0,11.47,0,17.21a13.89,13.89,0,0,1-.6,5c-.93,2.43-3.14,4.14-5.42,5.4-2.79,1.54-6.07,2.62-9.14,1.79a1.52,1.52,0,0,1-.79-.42,1.7,1.7,0,0,1-.06-1.53A39.34,39.34,0,0,0,273.48,114.29Z"/><path class="cls-107" d="M260.48,83.34l13.77-6c8.36,1.45,16.59,5.94,20.57,13.42s2.37,18.09-4.78,22.63c-3.2,2-7.06,2.72-10.43,4.44-3.81,1.94-7.7,5.31-11.78,4-3.91-1.24-5.3-6-5.91-10A142.52,142.52,0,0,1,260.48,83.34Z"/><path class="cls-111" d="M247.68,242.57c.57-6.78,3.89-12.53,5.41-19.17,5.17-22.62-5.43-46.87.86-69.2.88-3.12.72-6.86,3.67-8.23a56.45,56.45,0,0,0,8.44-4.83c1.4-1,2.86-2.18,3.09-3.86a11,11,0,0,1,.2-2.24c.51-1.47,2.35-1.86,3.88-2.16a25.88,25.88,0,0,0,9-3.6L296,131.07a9.51,9.51,0,0,1,5.91,5.15,28,28,0,0,1,2.22,7.76c2,10.84,16.5,2.66,17.67,13.63,1.05,9.84-2.55,37.18-3,47-.68,14.68.06,28.33,5.11,42.13a12.88,12.88,0,0,1,1.05,4.91,9.12,9.12,0,0,1-4.25,6.76c-4.42,3-10.16,3.83-15.35,4.45-9.62,1.16-19.7,3-29.37,2.64C262.59,265.05,246.37,258.35,247.68,242.57Z"/><path class="cls-112" d="M259.51,86.49c0,.22.1.44.14.66a.28.28,0,0,0,0,.09Z"/><path class="cls-107" d="M184.54,124.39c2,1.84,8,10.31,11.92,5.21.26-.32.81-.2,1.22-.2,1.64,0,2.25,2.15,2.23,3.78-.06,4.23.06,10.34-1.91,14.09C207,159,214.88,168.3,223.82,180A44.11,44.11,0,0,1,240,165l14.08,11.95c-4.35,11.29-14.2,19-23.75,26.45-1.55,1.21-3.3,2.4-5.27,2.4a9.11,9.11,0,0,1-5-2.06c-15-10.39-25.91-22.72-30.38-40.38a24.09,24.09,0,0,0-1.75-5.41c-1.74-3.32-5.21-9.09-7.14-12.3a29.1,29.1,0,0,1-3.43-12.84c-.05-3-.7-12.36,1.4-14.5S181.82,121.86,184.54,124.39Z"/><path class="cls-113" d="M239.41,158.42c.31-.31.63-.61,1-.9A46.24,46.24,0,0,1,258.14,147c3.32-1,6.66-1.54,10.11.82,8.42,5.76,3.79,16.11-.22,21.37-4.77,6.25-10,12.13-15,18.19-1,1.22-10.85-5.69-12-6.51-4.51-3.07-10.06-7.51-10.34-13-.08-1.73,2.74-3.3,3.81-4.34C236.14,161.81,237.73,160.07,239.41,158.42Z"/><path class="cls-114" d="M260.91,74.21c2.73-6.24,9.59-10.71,15.93-12.68,15-4.63,36.62,3.93,42.21,19.22,2.91,8,3.87,16.43,5.8,24.65,1.75,7.47,6.07,14.51,11.19,20.17,2.66,2.94,5.68,5.62,7.72,9s2.93,7.84,1,11.31c-1.61,2.94-4.85,4.59-8,5.59s-6.58,1.54-9.55,3.08c-8.34,4.3-11.39,15.14-19.37,20.08a23.49,23.49,0,0,1-9.66,3.08c-7.83.91-16.86-1.43-20.67-8.34a20.43,20.43,0,0,1-2.19-9.08c-.76-18.6,11.72-35.53,12.49-54.13.08-2-.23-4.37-2-5.17a3.51,3.51,0,0,0-4,1.38,8.38,8.38,0,0,0-1.31,4.36,2.19,2.19,0,0,1-.48,1.47c-1,1-2.44-.55-3-1.83q-1.62-3.93-3.25-7.86c-2.37-5.76-9.83-8.69-12.7-14.44A11.31,11.31,0,0,1,260.91,74.21Z"/></g></g></g></svg>