<svg xmlns="http://www.w3.org/2000/svg" xmlns:xlink="http://www.w3.org/1999/xlink" viewBox="0 0 185.73 92.53"><defs><style>.cls-1{fill:none;stroke:#4c45ff;stroke-miterlimit:10;}.cls-2{fill:url(#linear-gradient);}.cls-3{fill:url(#linear-gradient-2);}.cls-4{fill:#e2baac;}.cls-5{fill:url(#linear-gradient-3);}.cls-6{fill:#4e44d8;}.cls-7{fill:#19144a;}.cls-8{fill:#001926;}.cls-9{fill:#758492;}.cls-10{fill:#afb5bd;}.cls-11{fill:#edf5f6;}.cls-12{fill:#00173b;}.cls-13{fill:#041c43;}.cls-14{fill:#0d2952;}.cls-15{fill:#e0ab94;}.cls-16{fill:#af7366;}.cls-17{fill:url(#linear-gradient-4);}.cls-18{fill:url(#linear-gradient-5);}.cls-19{fill:url(#linear-gradient-6);}</style><linearGradient id="linear-gradient" x1="122.49" y1="81.44" x2="122.49" y2="9.69" gradientUnits="userSpaceOnUse"><stop offset="0" stop-color="#67cfa7"/><stop offset="1" stop-color="#196e4b"/></linearGradient><linearGradient id="linear-gradient-2" x1="102.9" y1="81.44" x2="102.9" y2="33.68" xlink:href="#linear-gradient"/><linearGradient id="linear-gradient-3" x1="-3968.16" y1="-4335.32" x2="-3967.81" y2="-4334.79" gradientTransform="matrix(58.72, 0, 0, -81.86, 233034.91, -354790.06)" gradientUnits="userSpaceOnUse"><stop offset="0" stop-color="#586fff"/><stop offset="1" stop-color="#b464f2"/></linearGradient><linearGradient id="linear-gradient-4" x1="144.86" y1="53.69" x2="120.86" y2="52.03" gradientUnits="userSpaceOnUse"><stop offset="0" stop-color="#e69010"/><stop offset="1" stop-color="#ffc517"/></linearGradient><linearGradient id="linear-gradient-5" x1="135.76" y1="63" x2="184.98" y2="63" xlink:href="#linear-gradient-4"/><linearGradient id="linear-gradient-6" x1="177.97" y1="70.92" x2="165.26" y2="29.35" xlink:href="#linear-gradient-4"/></defs><title>refer-footer1</title><g id="Layer_2" data-name="Layer 2"><g id="Layer_1-2" data-name="Layer 1"><line class="cls-1" x1="83.22" y1="82.19" x2="153.72" y2="82.19"/><g id="Desktop-Web"><g id="contact-page"><g id="footer"><g id="refer"><g id="refer-illustration"><g id="Page-1"><g id="Group-132"><path id="Fill-4" class="cls-2" d="M116,43.13h12.89V77.47c0,1.85.21,4.07-.48,4.13l-11.73,0c-.76,0-.68-1.57-.68-3.61Z"/><path id="Fill-130" class="cls-3" d="M96.46,67.48h12.89V80.16c0,.9-.33,1.58-1,1.6q-.69,0-10.51,0a1.37,1.37,0,0,1-1.37-1.37Z"/><path id="Fill-32" class="cls-4" d="M48,22.54A13.33,13.33,0,0,1,37.42,36.63s-1.39.27-.83,3.89a13.49,13.49,0,0,0,9.74,3.9c5.85-.28-4.46,4.73-4.46,4.73L31,50.55l-10.3-4.18-.56-15.31,3.62-12.25,8.91-5,12-2.23c1,3,2.27,6,3,9A12.26,12.26,0,0,1,48,22.54"/><path class="cls-5" d="M13.48,72.54c4.57,9.48-2.2,12.29-1.21,20H51.74C50.92,89.05,50,85.31,50,81.73s.55-1.67.55-5.29A8.38,8.38,0,0,0,48,70.59a18,18,0,0,0,13.08-3.9c-7-28.39-14.75-22.27-14.75-22.27-3,2.32-5.51,5.48-10,5.08A13,13,0,0,1,34,49,124.63,124.63,0,0,1,12.64,40.8s-8.07,11.14-10,16.43,7.8,15.87,7.8,15.87Z"/><g id="Fill-36"><path id="path-2" class="cls-6" d="M40.56,3c-1.52-.57-2.43-1.69-4-2.26A14.89,14.89,0,0,0,27.74.58C23.49,2,20.89,6.19,19,10.23a84.2,84.2,0,0,0-4.12,10.6c-1,3-1.21,6.84-3,9.35-3.62,5.07-9.34,7.53-11.28,14A16,16,0,0,0,1.79,55.83c3.58,7,12,11.46,19.76,10.86A16.66,16.66,0,0,0,36.85,49.8c-.1-3.34-1.22-6.56-2.06-9.79s-1.37-6.71-.34-9.89c2-6,8.8-5.95,13.9-7.61,5.29-1.72,6.67-8,4.13-12.67C50.38,6,46,3.83,41.75,3.31A5.6,5.6,0,0,1,40.56,3"/><path id="path-2-2" data-name="path-2" class="cls-7" d="M40.56,3c-1.52-.57-2.43-1.69-4-2.26A14.89,14.89,0,0,0,27.74.58C23.49,2,20.89,6.19,19,10.23a84.2,84.2,0,0,0-4.12,10.6c-1,3-1.21,6.84-3,9.35-3.62,5.07-9.34,7.53-11.28,14A16,16,0,0,0,1.79,55.83c3.58,7,12,11.46,19.76,10.86A16.66,16.66,0,0,0,36.85,49.8c-.1-3.34-1.22-6.56-2.06-9.79s-1.37-6.71-.34-9.89c2-6,8.8-5.95,13.9-7.61,5.29-1.72,6.67-8,4.13-12.67C50.38,6,46,3.83,41.75,3.31A5.6,5.6,0,0,1,40.56,3"/></g><path id="Fill-38" class="cls-8" d="M81.07,59.34l-.3.56c0,.1,0,.17.22.15a.53.53,0,0,0,.4-.22l.3-.55c0-.1,0-.17-.21-.15a.53.53,0,0,0-.41.21"/><path id="Fill-40" class="cls-8" d="M83.73,41.34a.2.2,0,0,0-.29.09.24.24,0,0,0,.08.31l2.42,1.4a.21.21,0,0,0,.29-.08.24.24,0,0,0-.08-.31Z"/><path id="Fill-42" class="cls-9" d="M87.77,46.24l-1.31,2.47c0,.08.18.21.32.22-.09,0-.13,0-.09-.12L88,46.34a.64.64,0,0,1,.4-.22c.12,0,.2,0,.22.05s-.3-.18-.45-.15a.64.64,0,0,0-.39.22"/><path id="Fill-44" class="cls-9" d="M86,49.58l-1,1.87c0,.06.19.17.34.18-.09,0-.14-.05-.11-.1l1-1.87a.55.55,0,0,1,.36-.16c.12,0,.2,0,.23,0s-.32-.14-.46-.12a.58.58,0,0,0-.37.16"/><path id="Fill-46" class="cls-10" d="M86.81,49.54s-.11,0-.23,0a.55.55,0,0,0-.36.16l-1,1.87s0,.09.11.1h.11a.56.56,0,0,0,.37-.17l1-1.87a0,0,0,0,0,0-.05"/><path id="Fill-48" class="cls-10" d="M86.8,48.93h.1a.62.62,0,0,0,.39-.23l1.31-2.46s0-.05,0-.07h0c0-.05-.1-.07-.22-.05a.64.64,0,0,0-.4.22l-1.31,2.47c0,.07,0,.11.1.12h0"/><path id="Fill-50" class="cls-11" d="M82.16,41.47a1,1,0,0,0-1.31.58L73.41,56.21a1.1,1.1,0,0,0,.24,1.46l4.51,2.6a1,1,0,0,0,1.3-.57l7.45-14.06a1.12,1.12,0,0,0-.22-1.48Z"/><path id="Fill-52" class="cls-12" d="M88,45.33,86.2,48.68l.26,0,1.31-2.47a.64.64,0,0,1,.39-.22c.15,0,.46.08.45.15h0s0,0,0,.07L87.29,48.7l.35,0,2-3.8Z"/><path id="Fill-54" class="cls-12" d="M80.77,59.9l.3-.56a.56.56,0,0,1,.41-.22c.17,0,.26.06.21.16l-.3.55a.53.53,0,0,1-.4.22c-.18,0-.27,0-.22-.15M85,51.45l1-1.87a.58.58,0,0,1,.37-.16c.14,0,.44.06.46.12a0,0,0,0,1,0,.05l-1,1.87a.56.56,0,0,1-.37.17h-.11c-.15,0-.38-.12-.34-.18M78.47,61.84a3.23,3.23,0,0,0,2.75-1l6.42-12.11-.35,0a.62.62,0,0,1-.39.23h-.12c-.14,0-.36-.14-.32-.22l-.26,0L79.63,61.09a1.32,1.32,0,0,1-1.16.75"/><path id="Fill-56" class="cls-13" d="M89.65,43.13l-1.5.36a1.45,1.45,0,0,1,0,1.48l-.19.36,1.67-.4.12-.21a1.4,1.4,0,0,0-.12-1.59"/><path id="Fill-58" class="cls-14" d="M83.44,41.43a.2.2,0,0,1,.29-.09l2.42,1.41a.24.24,0,0,1,.08.31.21.21,0,0,1-.29.08l-2.42-1.4A.24.24,0,0,1,83.44,41.43Zm-2.59.62a1,1,0,0,1,1.31-.58l4.53,2.69a1.12,1.12,0,0,1,.22,1.48L79.46,59.7a1,1,0,0,1-1.29.57l-4.52-2.6a1.1,1.1,0,0,1-.24-1.46Zm7.3,1.44a.85.85,0,0,0-.26-.24l-5.37-3.36a1,1,0,0,0-1.08.07h0a1.59,1.59,0,0,0-.46.53L72.34,56.8a1.28,1.28,0,0,0,.3,1.72l5.46,3.2a.71.71,0,0,0,.18.08h0l.19,0a1.32,1.32,0,0,0,1.16-.75L86.2,48.68,88,45.33l.19-.36A1.45,1.45,0,0,0,88.15,43.49Z"/><path id="Fill-60" class="cls-12" d="M81.44,40a1,1,0,0,1,1.08-.07l5.37,3.36a.85.85,0,0,1,.26.24l1.5-.36L89.49,43l-5.38-3.37a3.9,3.9,0,0,0-2.67.33"/><path id="Fill-62" class="cls-15" d="M58.58,58.34v0c.12.41,4.73-2.85,5.09-3.2,1.24-1.22,2.34-3.67,4.06-4.24a2.11,2.11,0,0,1,.75-.07,7.18,7.18,0,0,1,2.41.6,4.34,4.34,0,0,0,3.19.41,11.18,11.18,0,0,0,3.58-1.68s1.32-.91.56.9-5.16,3-5.16,3-.62,1.11.07,1.25,2.07-.65,2.64-1.15a1.32,1.32,0,0,1,.69-.4c1-.11.41,1.52.18,1.92a4.09,4.09,0,0,1-2.18,1.74c-1.46.52-2.9,1.11-4.36,1.63a10.93,10.93,0,0,1-4,.41c-1.86-.07-2.82,1.3-4,2.53-.2.2-1.93,1.74-1.85,2-.56-1.88-1.11-3.76-1.67-5.64"/><path id="Fill-64" class="cls-15" d="M60.28,67.31l3,10.8S75.14,69.34,77.51,65a19.88,19.88,0,0,0,2.37-8.63s-.28-2.5,1.81-.42a5.86,5.86,0,0,1,.55,2.23c0,1.12,3.62-5.43,3.48-7.24,0,0,1.39-2.78,2.79,1a11.09,11.09,0,0,1,.12,5.49,17.86,17.86,0,0,1-1.34,5.15A11.18,11.18,0,0,1,83.36,67c-1.26.7-5.15,7-5.15,7S68.88,87,65.68,89.1c0,0-2.93,2.79-5.43,1.4S52,78.75,49.23,70.68a19.93,19.93,0,0,0,11-3.36"/><path id="Fill-66" class="cls-16" d="M136.72,12.77s.9,21.52,7,21.52,1.5-.9,1.5-.9-1.21,6.06,0,7.27,10.66,1.93,14.3-6.56c0,0-5.81-.71-4.6-20.11,0,0-12.12-19.4-18.18-1.22"/><path class="cls-7" d="M158.61,5.82C156.38-2,144.88.69,140.55,4c-6.51,5-7.32,12.31-6.67,13.79,2.7,6.1,7.1-2.12,11.92-4.71,3.42-1.83,4.86,2.71,4.86,2.71A18.6,18.6,0,0,1,152,19.1c.14.58-.46,2,.5,1.84,2-.38.92-3,1.22-4.53C154.9,10.35,155,25.7,155,25.7,161.06,23.28,159.74,9.76,158.61,5.82Z"/><path id="Fill-70" class="cls-16" d="M99,28.26a13.76,13.76,0,0,0,0,6.35,2.34,2.34,0,0,1-.48,1.82,12.78,12.78,0,0,1-3.76,3.44c-1.52.75-3.55-1-4.7-2.26-1.64-1.76.38-4.47,1.93-5.5a3.13,3.13,0,0,1,1.82-.65c1.93.07,2.48-.51,3-2.44a7.75,7.75,0,0,1,1-2.92,1.38,1.38,0,0,1,.69-.55,1.31,1.31,0,0,1,.8.08c1.12.43.08,1.62-.17,2.38a2.41,2.41,0,0,0-.08.25"/><path id="Fill-72" class="cls-16" d="M135.74,50.9S119.16,63.7,98.28,34.4L94,39.82S117.66,89,138.72,63.25c0,0,8.95-16.75-3-12.35"/><path id="Fill-82" class="cls-17" d="M144.57,39.19s-18.95,12.88-18.45,15.93,8.65,12.36,8.65,12.36,5.52-1.18,5.52-5.46,4.28-22.83,4.28-22.83"/><path class="cls-18" d="M136.82,75.77c.3,5.41.44,11.09.47,16.76h46.44c-1.48-5.25-3.19-10.37-4.91-14.81-1-2.58-7-3.23-4.28-2.86,10.07,1.36,10.44-9,10.44-9-3.75-24.4-15.72-30.46-22.08-31.95a15.18,15.18,0,0,0-4.06-.46c-8,10.28-14.27,5.71-14.27,5.71C133.47,54.06,136,63.7,136,66.3S136.82,75.77,136.82,75.77Z"/><path class="cls-16" d="M175,92.53a33.83,33.83,0,0,0,7.18-34.71c-4-.59-7.52,7.77-10.29,9.25-1,.55-3.07,6.23-3.64,7.25-3.32,6-9.41,12.31-16.08,18.21Z"/><path id="Fill-80" class="cls-19" d="M170.21,37.19c8.11,6.38,15.25,13,15.52,27.93,0,2.41-.89,5-1.52,7.31-.47,1.73-1.28,7.17-3.17,7.87a3,3,0,0,1-2.28-.43c-4.73-2.36-7.95-5.27-11.84-8.68,0,0,5.81-17-.37-20.67"/></g></g></g></g></g></g></g></g></g></svg>